<svg width="128" height="33" viewBox="0 0 128 33" fill="none" xmlns="http://www.w3.org/2000/svg">
<path d="M12.5182 25.2284C12.5009 25.6009 12.6242 25.9664 12.8636 26.2528C13.103 26.5392 13.4413 26.7258 13.8118 26.7757C14.1003 26.7366 14.3716 26.6159 14.5935 26.4277C14.8153 26.2396 14.9785 25.9919 15.0636 25.7141C15.3203 24.5578 15.4923 23.3843 15.5782 22.2031C14.6996 22.6977 13.7001 22.938 12.6921 22.897C12.583 23.6695 12.5249 24.4483 12.5182 25.2284Z" fill="#0B104F"/>
<path d="M18.1723 6.41862L18.2558 6.33535L23.124 0.881611C23.1889 0.802842 23.2214 0.702444 23.2149 0.600698C23.2085 0.498952 23.1635 0.403442 23.0892 0.333462C23.0312 0.279342 22.9572 0.245377 22.8782 0.236625C22.7993 0.227872 22.7196 0.244802 22.6511 0.284891L16.7953 4.28153C16.4973 4.03792 16.1438 3.87112 15.766 3.79582C15.5288 3.72679 15.2829 3.69175 15.0358 3.69175H14.8689C14.7367 2.77585 14.3055 1.28405 13.9091 1.55466C13.3527 1.88077 13.012 3.63624 12.8659 4.67703C12.5686 5.02382 12.352 5.43207 12.2317 5.87239C12.1115 6.3127 12.0906 6.77414 12.1705 7.22349C12.1998 7.51735 12.2463 7.80927 12.3096 8.09776C12.8381 10.6997 12.4695 11.5671 11.8088 12.6842C11.1481 13.8013 10.244 13.9539 7.76123 13.7458C7.58051 13.709 7.3962 13.6927 7.21181 13.6972C6.34694 13.7156 5.51998 14.0549 4.89242 14.6489C4.26486 15.243 3.88177 16.0491 3.81795 16.9098C3.47717 19.3036 5.08369 24.3549 5.66093 25.3679C6.30771 26.5128 7.54563 27.2414 8.36628 26.5128C9.01306 25.8189 7.72645 22.315 7.31613 21.1423C7.82382 21.3644 8.3176 21.5517 8.7766 21.7182C8.77074 23.0447 8.88949 24.3689 9.13129 25.6732C9.17373 25.9611 9.31139 26.2265 9.52239 26.4273C9.73339 26.6281 10.0056 26.7528 10.2958 26.7815C10.586 26.8102 10.8775 26.7413 11.1239 26.5858C11.3703 26.4302 11.5575 26.1969 11.6558 25.923C11.9949 24.7994 12.136 23.6255 12.0731 22.4537C12.2887 22.4537 12.4904 22.4537 12.6921 22.4537C13.7091 22.475 14.7116 22.2105 15.5852 21.6905C17.6716 20.393 18.1375 17.7355 17.9219 15.8551C15.5504 15.3208 14.7993 12.9617 14.2569 10.8454C14.6046 12.1013 15.3905 13.7319 16.7605 14.4605L16.8857 14.5298L16.9692 14.5715C17.4107 14.7794 17.89 14.8956 18.3779 14.913C18.8658 14.9305 19.3522 14.8488 19.8075 14.6729C20.2628 14.4971 20.6775 14.2307 21.0264 13.89C21.3754 13.5493 21.6513 13.1414 21.8374 12.6911C22.3242 11.5254 21.9 10.3389 20.669 8.64591C19.9318 7.81328 19.2364 6.8835 18.6939 6.29372C18.9025 6.71698 18.979 7.0986 18.7495 7.26513C18.6173 7.33327 18.4707 7.36883 18.3218 7.36883C18.173 7.36883 18.0263 7.33327 17.8941 7.26513C17.6166 7.16265 17.3545 7.02256 17.1152 6.84881L16.9552 6.73085L16.9066 6.69616L16.7814 6.58514H16.7257L16.6145 6.46719L16.5658 6.42555C16.5298 6.39428 16.4972 6.35941 16.4684 6.32148C16.5736 6.43989 16.7013 6.53639 16.844 6.60541C16.9868 6.67442 17.1418 6.7146 17.3001 6.72363C17.4585 6.73266 17.6171 6.71036 17.7667 6.65801C17.9164 6.60566 18.0543 6.52431 18.1723 6.41862Z" fill="#0B104F"/>
<path d="M16.8299 3.92825C17.0315 3.35929 17.2263 1.54137 16.7464 1.63851C16.2665 1.73565 15.7241 2.64461 15.3555 3.2899C15.9156 3.31217 16.4478 3.53941 16.8507 3.92825" fill="#0B104F"/>
<path d="M0.521371 17.3875C0.800896 18.8708 1.47599 20.2514 2.47562 21.3841C2.71208 21.7033 3.20586 21.9739 3.22672 21.1621C3.2615 19.5593 1.96098 17.4014 4.94452 16.0831C5.55652 15.8125 5.26443 14.0431 3.27541 13.717C2.08616 13.5158 0.0901843 14.8619 0.521371 17.3875Z" fill="#0B104F"/>
<path d="M37.8265 16.2023C37.2074 15.127 36.3149 14.2337 35.2392 13.6124C34.1634 12.9912 32.9424 12.6641 31.6995 12.6641C30.4565 12.6641 29.2355 12.9912 28.1598 13.6124C27.084 14.2337 26.1915 15.127 25.5724 16.2023C24.947 17.3065 24.6254 18.5561 24.6405 19.8243C24.6216 21.08 24.918 22.3204 25.5029 23.4324C26.0401 24.4619 26.8386 25.3328 27.8188 25.958C28.8907 26.5548 30.0946 26.8761 31.322 26.8931C32.5494 26.91 33.7618 26.6221 34.8499 26.0552C35.4285 25.6994 35.926 25.2267 36.3104 24.6674C37.1975 23.1062 38.0053 21.5013 38.7306 19.859C38.7707 18.5805 38.458 17.3156 37.8265 16.2023ZM35.6984 22.2597C35.3217 22.9636 34.762 23.5533 34.0779 23.9666C33.3737 24.3756 32.5734 24.591 31.7586 24.591C30.9437 24.591 30.1434 24.3756 29.4392 23.9666C28.7569 23.5511 28.1976 22.962 27.8188 22.2597C27.4221 21.5015 27.2149 20.6588 27.2149 19.8035C27.2149 18.9481 27.4221 18.1055 27.8188 17.3472C28.2032 16.6404 28.7698 16.0487 29.4601 15.6334C30.1655 15.2279 30.9653 15.0144 31.7794 15.0144C32.5936 15.0144 33.3934 15.2279 34.0988 15.6334C34.7787 16.0483 35.3319 16.641 35.6984 17.3472C36.0878 18.1077 36.2909 18.9495 36.2909 19.8035C36.2909 20.6575 36.0878 21.4993 35.6984 22.2597Z" fill="#0B104F"/>
<path d="M47.8621 26.9713C46.7337 26.9854 45.6114 26.8046 44.5447 26.437C43.6575 26.154 42.8432 25.6803 42.1593 25.0493C42.0363 24.9302 41.9428 24.7842 41.8861 24.6229C41.8293 24.4615 41.811 24.2892 41.8324 24.1195C41.846 23.9502 41.8959 23.7858 41.9787 23.6373C42.0615 23.4889 42.1752 23.3599 42.3123 23.2592C42.5561 23.0168 42.8862 22.8807 43.2303 22.8807C43.5745 22.8807 43.9046 23.0168 44.1483 23.2592L44.1831 23.3008C44.579 23.6911 45.0529 23.9938 45.574 24.1889C46.2486 24.4653 46.9731 24.5999 47.7021 24.5844C48.4902 24.6142 49.2715 24.4295 49.9624 24.0502C50.1814 23.939 50.3695 23.7758 50.5102 23.5749C50.6509 23.3741 50.7398 23.1417 50.7691 22.8983C50.7654 22.6341 50.6953 22.375 50.5653 22.1447C50.4353 21.9144 50.2495 21.7202 50.025 21.58C49.1706 21.0933 48.2225 20.7929 47.2431 20.6988C45.8816 20.5278 44.5852 20.0171 43.4737 19.2139C43.1023 18.9147 42.8027 18.5363 42.5969 18.1064C42.3911 17.6766 42.2844 17.2063 42.2845 16.7299C42.2539 15.9408 42.5248 15.1695 43.0425 14.572C43.5702 13.9778 44.2437 13.5307 44.9968 13.2745C45.7957 12.9772 46.6408 12.8222 47.4935 12.8166C48.516 12.7835 49.5348 12.9533 50.491 13.3161C51.2996 13.6129 52.0181 14.1123 52.5773 14.7663C52.6891 14.8785 52.7774 15.0117 52.8371 15.1582C52.8968 15.3047 52.9267 15.4616 52.9251 15.6197C52.9145 15.77 52.8703 15.9159 52.7957 16.0468C52.721 16.1777 52.6179 16.2902 52.4939 16.3761C52.3542 16.4717 52.1965 16.5382 52.0304 16.5716C51.8643 16.605 51.6931 16.6045 51.5272 16.5703C51.1748 16.5123 50.8452 16.3587 50.5744 16.1263C50.1855 15.7416 49.7079 15.4581 49.1835 15.3006C48.6274 15.1437 48.05 15.0758 47.4726 15.0994C46.8163 15.0849 46.1658 15.2252 45.574 15.5087C45.3459 15.5966 45.1503 15.7522 45.0135 15.9544C44.8768 16.1566 44.8054 16.3958 44.809 16.6397C44.8108 16.9333 44.8977 17.2201 45.0594 17.4654C45.3129 17.7701 45.6482 17.9964 46.0261 18.1176C46.7208 18.356 47.4353 18.5324 48.1612 18.645C49.1978 18.8236 50.2044 19.1459 51.1516 19.6025C51.7961 19.9002 52.3485 20.3651 52.7512 20.9486C53.0958 21.4828 53.2815 22.1035 53.2867 22.7388C53.3005 23.4919 53.0925 24.2325 52.6886 24.8689C52.2339 25.5262 51.6057 26.0449 50.8735 26.3676C49.9234 26.778 48.8973 26.9837 47.8621 26.9713Z" fill="#0B104F"/>
<path d="M61.528 26.9716C60.3996 26.9857 59.2773 26.8049 58.2106 26.4373C57.3234 26.1543 56.5091 25.6806 55.8252 25.0496C55.7035 24.9296 55.6109 24.7834 55.5542 24.6223C55.4976 24.4612 55.4785 24.2894 55.4983 24.1198C55.5132 23.95 55.5643 23.7854 55.6483 23.637C55.7323 23.4886 55.8471 23.3599 55.9852 23.2594C56.118 23.1338 56.2757 23.0374 56.4482 22.9764C56.6208 22.9155 56.8042 22.8913 56.9866 22.9056C57.3188 22.9402 57.6273 23.0929 57.856 23.3358C58.2526 23.7251 58.7264 24.0276 59.2469 24.2239C59.9239 24.5002 60.6506 24.6348 61.382 24.6194C62.175 24.6468 62.9608 24.4598 63.6561 24.0782C63.8859 23.9541 64.0792 23.7723 64.217 23.5508C64.3548 23.3294 64.4324 23.0759 64.442 22.8154C64.4348 22.5545 64.364 22.2993 64.2355 22.072C64.107 21.8446 63.9248 21.652 63.7048 21.5109C62.8504 21.0242 61.9023 20.7238 60.9229 20.6297C59.5606 20.4616 58.2635 19.9507 57.1535 19.1448C56.7822 18.847 56.4827 18.4698 56.2768 18.0411C56.071 17.6124 55.9642 17.1431 55.9643 16.6678C55.9527 15.898 56.2277 15.1513 56.7363 14.5723C57.2639 13.9781 57.9374 13.531 58.6905 13.2748C59.4921 12.9664 60.3421 12.8019 61.2011 12.7891C62.2258 12.7566 63.2468 12.9263 64.2055 13.2887C65.0127 13.5882 65.7306 14.0871 66.2919 14.7388C66.5144 14.9675 66.6391 15.2736 66.6397 15.5923C66.6291 15.7425 66.5849 15.8884 66.5102 16.0193C66.4356 16.1502 66.3325 16.2628 66.2085 16.3486C66.0689 16.4446 65.9113 16.5113 65.7451 16.5447C65.5789 16.5781 65.4077 16.5775 65.2418 16.5429C64.8894 16.4848 64.5598 16.3312 64.289 16.0988C63.9019 15.7118 63.4236 15.4279 62.8981 15.2731C62.34 15.114 61.7603 15.0437 61.1803 15.0649C60.5248 15.0517 59.8751 15.1894 59.2817 15.4674C59.0536 15.5553 58.858 15.7108 58.7212 15.9131C58.5844 16.1153 58.513 16.3545 58.5166 16.5984C58.5182 16.8941 58.6052 17.1832 58.767 17.431C59.0233 17.7343 59.3611 17.9582 59.7407 18.0763C60.4328 18.3169 61.145 18.4957 61.8688 18.6106C62.9206 18.7763 63.9438 19.0893 64.908 19.5403C65.5524 19.838 66.1048 20.3029 66.5075 20.8864C66.8561 21.4188 67.0421 22.0407 67.043 22.6766C67.0654 23.4296 66.8541 24.1712 66.438 24.7998C65.9907 25.4885 65.353 26.0332 64.6019 26.3679C63.6342 26.7921 62.5847 26.9982 61.528 26.9716Z" fill="#0B104F"/>
<path d="M82.2387 13.1849C81.9823 12.9509 81.6474 12.8211 81.2999 12.8211C80.9523 12.8211 80.6174 12.9509 80.361 13.1849C80.2347 13.3062 80.1364 13.4534 80.0727 13.6163C80.0091 13.7793 79.9817 13.9541 79.9924 14.1286V21.3031C79.9898 21.8978 79.8027 22.4771 79.4569 22.9614C79.098 23.4562 78.6195 23.8525 78.066 24.1132C77.4581 24.4105 76.7885 24.5602 76.1117 24.5504C75.3909 24.5604 74.6773 24.4062 74.0253 24.0994C73.409 23.7948 72.8998 23.3109 72.5648 22.7116C72.1835 21.9854 72.0012 21.1716 72.0363 20.3525V14.1078C72.0531 13.934 72.0349 13.7586 71.9825 13.592C71.9302 13.4255 71.8449 13.271 71.7316 13.138C71.6184 13.0049 71.4795 12.8958 71.3232 12.8173C71.1669 12.7387 70.9965 12.6922 70.8219 12.6806C70.6473 12.669 70.4721 12.6925 70.3068 12.7496C70.1414 12.8068 69.9893 12.8965 69.8593 13.0134C69.7294 13.1303 69.6243 13.2721 69.5502 13.4303C69.4762 13.5885 69.4347 13.7599 69.4283 13.9343C69.421 13.9919 69.421 14.0502 69.4283 14.1078V20.3942C69.3896 21.6328 69.6697 22.8607 70.242 23.9606C70.7424 24.8948 71.5065 25.662 72.4397 26.1671C73.4122 26.6787 74.4978 26.9387 75.5971 26.9234C76.6621 26.9449 77.7144 26.689 78.6501 26.181C79.1262 25.9181 79.5638 25.5913 79.9507 25.2095V25.494C79.9445 25.6654 79.9734 25.8362 80.0356 25.996C80.0978 26.1559 80.1919 26.3014 80.3123 26.4238C80.5693 26.6596 80.9093 26.7843 81.2581 26.7707C81.5897 26.7839 81.9132 26.6659 82.158 26.4424C82.4029 26.2189 82.5494 25.908 82.5656 25.5773V14.1078C82.5762 13.9399 82.5527 13.7717 82.4965 13.6131C82.4404 13.4545 82.3527 13.3089 82.2387 13.1849Z" fill="#0B104F"/>
<path d="M95.0142 13.1833C94.315 12.8023 93.521 12.6289 92.7261 12.6837C91.9156 12.6695 91.1115 12.8309 90.3695 13.1567C89.6275 13.4826 88.9652 13.9651 88.4282 14.571V14.0853C88.4595 13.7477 88.3551 13.4114 88.138 13.1505C87.9208 12.8896 87.6087 12.7254 87.2702 12.6942C86.9318 12.6629 86.5947 12.767 86.3332 12.9837C86.0717 13.2003 85.9072 13.5117 85.8758 13.8494C85.8689 13.9279 85.8689 14.0069 85.8758 14.0853V25.5132C85.8621 25.6866 85.8839 25.861 85.9401 26.0257C85.9964 26.1903 86.0857 26.3418 86.2027 26.4708C86.4655 26.6939 86.8039 26.8081 87.1485 26.7899C87.3217 26.8113 87.4975 26.793 87.6625 26.7364C87.8275 26.6798 87.9774 26.5863 88.1007 26.4633C88.2241 26.3402 88.3177 26.1906 88.3745 26.026C88.4312 25.8614 88.4496 25.686 88.4282 25.5132V18.075C88.4185 17.7182 88.4806 17.363 88.6108 17.0305C88.741 16.698 88.9366 16.3949 89.1862 16.1392C89.7575 15.5808 90.4849 15.2083 91.2726 15.0706C92.2464 14.8842 93.2484 14.9031 94.2144 15.1261C94.417 15.1608 94.6239 15.1608 94.8264 15.1261C95.0116 15.0897 95.1841 15.006 95.3272 14.8833C95.4782 14.7401 95.5804 14.5532 95.6193 14.349C95.6628 14.1152 95.6269 13.8737 95.5173 13.6625C95.4077 13.4514 95.2307 13.2828 95.0142 13.1833Z" fill="#0B104F"/>
<path d="M110.245 13.1841C109.988 12.9501 109.653 12.8203 109.306 12.8203C108.958 12.8203 108.623 12.9501 108.367 13.1841C108.241 13.3056 108.142 13.4527 108.077 13.6154C108.012 13.7782 107.983 13.9529 107.991 14.1278V21.3023C107.991 21.8963 107.807 22.4757 107.463 22.9606C107.104 23.4604 106.626 23.8634 106.072 24.1333C105.464 24.429 104.794 24.5787 104.118 24.5704C103.397 24.5785 102.684 24.4243 102.031 24.1194C101.416 23.8166 100.908 23.3321 100.578 22.7317C100.196 22.0054 100.014 21.1916 100.049 20.3725V14.1278C100.045 13.8749 99.9678 13.6285 99.8266 13.4184C99.6853 13.2083 99.4862 13.0434 99.2532 12.9437C99.0202 12.8439 98.7632 12.8136 98.5133 12.8562C98.2633 12.8989 98.0311 13.0128 97.8446 13.1841C97.7226 13.3057 97.627 13.4509 97.5636 13.6109C97.5002 13.7708 97.4704 13.942 97.476 14.1139V20.4003C97.4385 21.638 97.7161 22.865 98.2827 23.9667C98.7831 24.9009 99.5472 25.6681 100.48 26.1732C101.449 26.6802 102.53 26.9377 103.624 26.9226C104.691 26.9434 105.745 26.6876 106.684 26.1802C107.156 25.9171 107.589 25.5902 107.971 25.2088V25.4932C107.966 25.6656 107.997 25.837 108.062 25.9969C108.126 26.1568 108.223 26.3018 108.346 26.423C108.603 26.659 108.939 26.79 109.288 26.79C109.638 26.79 109.974 26.659 110.231 26.423C110.467 26.1716 110.594 25.8376 110.585 25.4932V14.107C110.592 13.9384 110.566 13.7701 110.507 13.6117C110.449 13.4534 110.36 13.3081 110.245 13.1841Z" fill="#0B104F"/>
<path d="M114.752 32.7575C114.585 32.7621 114.418 32.7338 114.262 32.6742C114.106 32.6146 113.963 32.5249 113.842 32.4102C113.72 32.2955 113.623 32.1581 113.554 32.0058C113.486 31.8534 113.449 31.6892 113.444 31.5224V19.8239C113.444 18.5571 113.773 17.3118 114.397 16.2089C114.989 15.1521 115.853 14.2728 116.901 13.6624C117.699 13.1909 118.582 12.881 119.501 12.7503C120.419 12.6196 121.354 12.6707 122.252 12.9008C123.151 13.1308 123.995 13.5353 124.737 14.091C125.478 14.6467 126.103 15.3428 126.575 16.1395C126.576 16.1535 126.58 16.1671 126.587 16.1791C126.595 16.1912 126.605 16.2014 126.616 16.2089C127.242 17.3105 127.563 18.5579 127.548 19.8239C127.564 21.0814 127.268 22.3232 126.686 23.4389C126.141 24.4697 125.336 25.3404 124.349 25.9646C123.433 26.5169 122.393 26.8339 121.324 26.8871C120.255 26.9404 119.189 26.7283 118.222 26.2699C117.404 25.8542 116.678 25.2784 116.087 24.5769V31.5155C116.093 31.688 116.062 31.8598 115.995 32.0192C115.929 32.1787 115.829 32.3221 115.703 32.4398C115.576 32.5575 115.426 32.6468 115.262 32.7016C115.098 32.7564 114.924 32.7754 114.752 32.7575ZM120.475 24.5977C121.296 24.6065 122.102 24.3879 122.805 23.9663C123.478 23.5461 124.03 22.9577 124.405 22.2594C124.799 21.5029 125.005 20.6627 125.005 19.81C125.005 18.9573 124.799 18.1172 124.405 17.3607C124.03 16.6604 123.479 16.0697 122.805 15.6469C121.791 15.0332 120.573 14.8464 119.421 15.1274C118.268 15.4084 117.274 16.1342 116.657 17.1456L116.539 17.3607C116.155 18.1204 115.955 18.9593 115.955 19.81C115.955 20.6608 116.155 21.4997 116.539 22.2594C116.919 22.97 117.487 23.5635 118.181 23.9756C118.875 24.3877 119.668 24.6028 120.475 24.5977Z" fill="#0B104F"/>
<path d="M37.7497 12.7118C37.4039 12.689 37.0632 12.8041 36.8024 13.0317C36.5415 13.2594 36.382 13.5811 36.3588 13.9261V16.8126V25.5413C36.3463 25.8803 36.4667 26.2108 36.6944 26.4627C36.9221 26.7147 37.2392 26.8682 37.5784 26.8908C37.9177 26.9133 38.2524 26.8032 38.5116 26.5836C38.7708 26.3641 38.934 26.0524 38.9668 25.7148C38.9741 25.6572 38.9741 25.5989 38.9668 25.5413V23.5916V14.0996C38.9897 13.7546 38.8743 13.4146 38.6461 13.1544C38.4179 12.8942 38.0955 12.735 37.7497 12.7118Z" fill="#0B104F"/>
</svg>
