<svg xmlns="http://www.w3.org/2000/svg" width="700" height="173" fill="#48ad3d" xmlns:v="https://vecta.io/nano"><path d="M6.304 8.752l55.55 10.9v109.602l78.1-25.35-38.396-10.13L77.377 60l123.195 24.295V119.6L61.855 164.606l-55.55-17.28V8.752zm370.4 82.098c-6.78-3.987-15.768-6.37-26.96-7.196v-.184c8.985-1.696 16.094-4.447 21.16-8.4 5.146-3.896 7.68-8.526 7.68-13.9 0-6.372-4.248-11.46-12.663-15.448-8.496-3.988-19.852-5.96-34.393-5.96h-47.464V133.4h48.607c15.604 0 28.593-2.476 38.805-7.426s15.357-11.46 15.357-19.437c-.08-6.325-3.43-11.595-10.128-15.676zm-73.198-41.026h22.465c21.322 0 31.942 4.538 31.942 13.614 0 5.27-3.104 9.306-9.23 12.285-6.127 2.888-14.46 4.3-25.325 4.3H303.34v-30.2h.164zm53.265 69.17c-6.3 3.026-15.195 4.54-26.713 4.54h-26.55V89.797h22.465c26.878 0 40.194 5.5 40.194 16.594.162 5.363-3.105 9.58-9.395 12.605h0zm64.7-67.2c-3.432 0-6.3-.642-8.66-1.97-2.45-1.375-3.512-2.934-3.512-4.95 0-1.97 1.143-3.667 3.512-5.042 2.45-1.375 5.23-1.97 8.66-1.97 3.512 0 6.372.642 8.987 1.97 2.45 1.375 3.676 3.025 3.676 5.042 0 1.926-1.308 3.53-3.676 4.86-2.615 1.33-5.638 2.063-8.987 2.063h0zm-9.803 15.403H430.7v66.33h-19.034v-66.33zm148.683 66.33h-19.036V95.894c0-14.2-8.496-21.27-26.958-21.27-9.558 0-17.483 1.97-23.7 6.05s-9.396 9.075-9.396 15.22v37.634h-19.034v-66.33h19.034v10.864h.408c8.987-8.435 21.894-12.422 38.396-12.422 13.07 0 23.037 2.384 29.818 7.105 6.943 4.72 10.376 11.55 10.376 20.5l.082 40.292zm114.697-66.33v9.26h-.4c-7.842-7.242-18.788-10.863-34.8-10.863-16.9 0-30.226 3.346-39.947 10.04-9.805 6.692-14.624 15.722-14.624 27.1 0 10.04 4.575 18.016 13.48 23.93 9.067 5.96 20.994 8.435 35.78 8.435 18.218 0 30.962-4.125 40.03-12.697h.408v7.242c0 17.465-14.622 26.083-44.032 26.083-19.77 0-32.678-4.86-32.678-4.86l-4.982 9.17c11.1 3.116 23.118 4.63 37.905 4.63 41.9 0 62.822-12.284 62.822-36.8v-60.66h-18.952zm0 36.12c0 6.692-3.43 12.102-10.048 16.4-6.7 4.3-14.95 6.37-25.57 6.37-10.54 0-19.035-2.244-25.408-6.7s-9.722-9.902-9.722-17.328c0-8.708 3.27-15.402 9.968-20.168s15.93-7.197 27.693-7.197c9.56 0 16.9 1.925 23.282 5.638 6.373 3.804 9.64 8.387 9.64 13.614v9.26l.163.1z"/></svg>