<svg xmlns="http://www.w3.org/2000/svg" width="700" height="173" xmlns:v="https://vecta.io/nano"><path d="M9.145 147.663C9.145 158.896 19.65 168 32.605 168H167.63c12.96 0 23.46-9.105 23.46-20.337V30.617c0-11.233-10.504-20.337-23.46-20.337H32.606c-12.96 0-23.46 9.105-23.46 20.337v117.046z" fill="#563d7c"/><path d="M84.594 80.045V57.71h22.68c2.16 0 4.242.156 6.248.47s3.78.868 5.324 1.67 2.776 1.918 3.703 3.343 1.39 3.255 1.39 5.483c0 4.013-1.39 6.91-4.166 8.694s-6.326 2.675-10.646 2.675l-24.533.001zM60.37 41.392v95.496h53.384c4.938 0 9.746-.535 14.426-1.605s8.846-2.72 12.498-4.95 6.557-5.104 8.717-8.626 3.24-7.7 3.24-12.506c0-5.974-1.67-11.08-5.014-15.313s-8.4-7.2-15.198-8.894c4.938-2.05 8.667-4.68 11.187-7.892s3.78-7.22 3.78-12.037c0-4.458-.85-8.203-2.546-11.235s-4.09-5.46-7.175-7.29-6.788-3.143-11.108-3.945-9.103-1.204-14.35-1.204H60.37v-.001zm24.223 79.178V94.355h26.383c5.246 0 9.463 1.047 12.652 3.144s4.783 5.595 4.783 10.5c0 2.496-.49 4.547-1.466 6.15s-2.29 2.876-3.935 3.813-3.55 1.605-5.708 2.007-4.423.602-6.79.602h-25.92 0z" fill="#fff"/><path d="M203.94 9.973c.4-.118.727-.3 1.053-.3l40.375.355c4.587.102 8.8 2.714 12.57 7.043 8.6 9.88 9.395 38.104-2.41 48.228l-2.015 1.74c2.244 1.663 4.452 2.777 6.302 4.76 7.1 7.616 9.993 24.655 6.814 39.62-2.774 13.06-9.36 18.45-17.02 21.32-2.516.942-5.15 1.432-7.734 1.46l-37.934.065.002-124.29zm13.457 106.077c9.357 0 18.444.345 27.514-.124 5.703-.295 9.823-10.16 9.48-19.757-.338-9.46-3.947-17.505-9.524-17.926-8.992-.678-18.01-.486-27.016-.638-.135-.001-.27.32-.455.55l.001 37.896zm.03-54.638c8.364 0 16.43.492 24.46-.163 5.914-.482 9.25-8.115 9.03-18.55-.195-9.24-3.575-14.795-9.658-15.054-7.628-.323-15.264-.173-22.896-.202-.31-.002-.622.27-.934.412v33.556zM634.49 44.337h11.22v9.707c1.248-1.555 2.77-3.282 4.174-5.228 8.596-11.9 28.984-10.448 35.964 13.536 6.005 20.642 5.743 41.4-2.362 60.617-4.5 10.642-11.44 14.446-19.316 13.762-6.842-.596-12.866-4.067-17.605-14.292v45.26h-12.072l-.003-123.362zm11.397 45.45c.506 4.52.785 9.148 1.565 13.542 1.745 9.804 7.056 17.053 12.557 17.68 7.358.838 12.642-3.55 15.303-14.083 3.38-13.385 3.26-26.882-1.68-39.39-5.828-14.755-19.793-13.522-24.73 1.936-2.032 6.362-3.027 13.06-3.014 20.316h0zm-19.345 31.603c0 3.7.082 7.456-.06 11.193-.034.923-.75 2.48-1.216 2.546-3.5.47-7.054 1.293-10.51.71-3.045-.513-4.724-4.68-5.662-9.498-7.23 9.5-15.52 11.556-24.34 9.792-7.374-1.475-13.483-11.25-14.01-22.104-.726-14.96 2.834-24.7 11.155-28.247 5.836-2.486 11.913-3.485 17.882-5.164 1.447-.407 2.91-.74 4.326-1.363 2.715-1.196 4.675-3.624 4.874-8.614.205-5.158-1.033-9.178-4.038-11.13-5.126-3.33-10.344-3.247-15.39.566-2.302 1.738-3.67 5.237-4.876 11.18h-11.826c.01-7.277 1.58-13.394 4.574-18.543 3.957-6.803 9.1-9.474 14.664-10.412 5.813-.98 11.593-.938 17.237 2.136 7.594 4.134 11.23 12.222 11.22 25.17l-.005 41.234c.001 9.754 0 9.754 5.998 10.548h0zm-18.276-31.015c-3.728 1.042-7.136 1.84-10.502 2.978-3.54 1.195-7.147 2.23-10.522 4.226-3.308 1.958-4.433 6.95-4.323 12.31.105 5.124 2.273 7.996 5.067 9.574 4.795 2.702 9.6 2.37 14.172-1.083 3.274-2.473 5.767-6.516 6.06-12.692.24-5.146.047-10.345.047-15.314zM303.984 41.74c18.546-.35 29.42 21.594 28.273 51.476-.398 10.387-2.126 20.092-6.362 28.302-4.563 8.843-10.435 13.5-17.475 14.764-5.878 1.058-11.6.437-17.037-3.554-8.11-5.944-12.74-16.318-14.685-30.142-1.334-9.474-1.276-18.908.22-28.28 3.302-20.673 13.162-32.487 27.066-32.567h0zM287.84 89.426c.486 4.386.74 8.882 1.506 13.138 1.945 10.837 7.244 17.993 13.3 18.467 7.488.586 12.727-4.5 15.5-15.76 2.717-10.992 2.72-22.242-.257-33.1-4.414-16.088-16.438-20.202-24.18-8.244-4.416 6.818-5.556 15.878-5.88 25.5h0zm80.487-47.685c16.73-.042 28.108 18.154 28.32 45.22.1 11.43-1.063 22.327-5.218 31.9-5.95 13.705-14.54 18.5-24.434 17.772-3.646-.27-7.424-1.575-10.82-3.728-7.976-5.055-12.73-15.005-14.845-28.325-1.855-11.695-1.648-23.317.71-34.75 3.62-17.534 13.547-28.058 26.287-28.09h0zm16.033 45.254c-.27-2.4-.536-7.04-1.338-11.423-2.038-11.15-7.423-17.92-14.208-18.396-6.39-.45-12.138 5.634-14.616 16.286-2.92 12.547-2.705 25.044 1.694 36.734 4.582 12.18 14.97 14.85 21.78 5.762 5.2-6.934 6.47-16.507 6.687-28.963h0zm103.42-17.658c-3.816 0-7.535.05-11.25-.063-.458-.014-1.17-.754-1.317-1.417-2.09-9.367-7.004-10.48-12.087-10.528-2.106-.02-4.35.81-6.3 2.13-4.17 2.824-4.635 10.442-.726 14.09 2.71 2.532 5.896 3.89 8.954 5.282 4.327 1.967 8.795 3.152 13.094 5.25 10.994 5.364 15.3 23.158 9.134 37.826-2.95 7.035-7.366 10.844-12.43 12.816-7.483 2.914-14.934 3.13-22.247-1.135-7.824-4.563-11.958-13.724-12.567-27.586h11.94c3.395 14.305 12.986 19.876 21.973 12.565 2.08-1.69 3.468-4.098 3.607-8.053.147-4.228-.864-7.862-3.214-9.277-4.19-2.523-8.565-4.253-12.866-6.288-3.563-1.687-7.24-2.905-10.677-5.102-6.632-4.24-9.514-11.535-9.474-22.656.036-9.7 3.548-18 9.776-21.656 8.57-5.018 17.318-5.642 25.928-.197 5.82 3.68 9.29 10.94 10.733 20.713.13.903.017 1.902.017 3.285zm-64.822-25.25H434v14.587h-10.828c-.077 1.747-.175 2.97-.176 4.19l.004 44.168c.002 1.96.096 3.924.215 5.876.238 3.893 1.577 6.205 4.005 6.418 2.227.197 4.463.043 6.82.043v14.586c-5.047 2.017-10.177 1.9-15.144.125-5.78-2.08-8.13-8.502-8.18-20.66l-.023-54.504h-9.18V44.163h9.056V17.146h12.383v26.94zm103.35 90.432c-4.756 0-9.257.24-13.743-.068-4.35-.298-7.697-4.952-8.647-11.9a93.74 93.74 0 0 1-.854-12.062l-.04-51.63h-9.147V44.3h9.01V17.172h12.408V43.86h10.997v14.665H515.74c-.126 1.322-.29 2.235-.29 3.15l.022 47.546c.033 8.383 1.393 10.4 6.54 10.34l4.298-.002v14.958zm20.637-90.13v15.35c4.764-13.06 11.358-19.865 21.097-17.544v18.935c-4.626-1.123-9.088-1.323-13.04 3.262-5.184 6.016-6.993 14.806-7.123 24.496l-.052 45.287h-12.152V44.386l11.27.001z" fill="#573e7d"/></svg>