<svg xmlns="http://www.w3.org/2000/svg" width="700" height="173" xmlns:v="https://vecta.io/nano"><path d="M362.383 85.053c-5.687 0-9.787 2.1-13.944 4.24v48.414c3.98.43 6.264.43 10.042.43 13.65 0 15.522-7.04 15.522-16.87V98.144c0-7.26-2.14-13.09-11.62-13.09h0zm-90.66-2.64c-9.472 0-11.632 5.852-11.632 13.106v4.073h23.252V95.52c0-7.254-2.16-13.106-11.62-13.106zM96.098 132.805c0 5.735 2.404 8.716 7.708 8.716 5.7 0 9.06-2.1 13.214-4.236V125.8h-12.443c-5.9 0-8.48 1.233-8.48 7.005zM450.57 85.053c-9.487 0-12.774 5.832-12.774 13.1v26.5c0 7.276 3.287 13.124 12.774 13.124 9.463 0 12.775-5.848 12.775-13.124v-26.5c-.003-7.258-3.316-13.1-12.775-13.1zM49.604 162.507H21.716V86.494H7.782V60.3H21.72V44.57c0-21.372 7.865-34.077 30.22-34.077h18.61v26.2H58.917c-8.703 0-9.277 3.662-9.277 10.494l-.036 13.1h21.073L68.213 86.5h-18.61v76.017zm95.312.198h-23.244l-1.004-6.62c-10.612 6.62-20.084 7.69-26.332 7.69-17.046 0-26.12-12.82-26.12-30.557 0-20.922 10.587-28.388 29.527-28.388h19.278v-4.524c0-10.682-1.087-13.813-15.672-13.813H77.502l2.33-26.194h26.064c32.002 0 39.018 11.384 39.018 40.22l.001 62.186zm79.04-74.3c-14.463-2.794-18.618-3.41-25.577-3.41-12.5 0-16.277 3.107-16.277 15.06v22.615c0 11.953 3.777 15.075 16.277 15.075 6.96 0 11.114-.626 25.577-3.43v25.55c-12.67 3.198-20.922 4.038-27.898 4.038-29.94 0-41.842-17.73-41.842-43.346V102.22c0-25.636 11.9-43.4 41.842-43.4 6.976 0 15.23.844 27.898 4.057v25.537zm87.274 32.153h-51.14v2.112c0 11.953 3.78 15.075 16.277 15.075 11.234 0 18.092-.626 32.53-3.43v25.55c-13.925 3.198-21.18 4.038-34.84 4.038-29.944 0-41.852-17.73-41.852-43.346V99.59c0-22.412 8.834-40.768 39.52-40.768s39.51 18.144 39.51 40.768v20.98zm90.656.487c0 24.755-6.282 42.814-44.348 42.814-13.747 0-21.81-1.362-36.98-3.988V18.362l27.878-5.24v49.502c6.025-2.52 13.822-3.8 20.92-3.8 27.882 0 32.527 14.076 32.527 36.696l.004 25.534zm89.368.537c0 21.357-7.83 42.07-40.59 42.07-32.775 0-40.752-20.714-40.752-42.07v-20.62c0-21.367 7.977-42.084 40.752-42.084 32.76 0 40.59 20.718 40.59 42.084v20.62zm89.308 0c0 21.357-7.84 42.07-40.592 42.07-32.775 0-40.752-20.714-40.752-42.07v-20.62c0-21.367 7.977-42.084 40.752-42.084 32.753 0 40.592 20.718 40.592 42.084v20.62zm91.65 40.915h-30.22l-25.558-48.045v48.045h-27.89V18.358l27.89-5.238v92.8l25.558-45.62h30.22l-27.9 49.782 27.9 52.425zm-132.34-77.454c-9.472 0-12.76 5.832-12.76 13.1v26.5c0 7.276 3.287 13.124 12.76 13.124 9.46 0 12.806-5.848 12.806-13.124v-26.5c0-7.258-3.346-13.1-12.806-13.1h0zM688.13 144.58c4.696 0 8.435 4.31 8.435 9.695 0 5.47-3.742 9.733-8.47 9.733-4.705 0-8.52-4.265-8.52-9.733 0-5.385 3.814-9.695 8.52-9.695h.036zm-.036 1.507c-3.784 0-6.88 3.666-6.88 8.188 0 4.606 3.1 8.226 6.915 8.226 3.818.044 6.87-3.62 6.87-8.183s-3.05-8.23-6.87-8.23h-.036zm-1.603 13.833h-1.53V149.1c.803-.127 1.568-.253 2.716-.253 1.455 0 2.403.347 2.987.816.563.478.867 1.205.867 2.234 0 1.43-.835 2.287-1.864 2.637v.083c.837.176 1.407 1.027 1.603 2.62.225 1.682.456 2.323.606 2.677h-1.604c-.227-.354-.46-1.338-.65-2.763-.223-1.375-.84-1.894-2.064-1.894h-1.063l-.003 4.66zm0-5.988h1.108c1.257 0 2.324-.52 2.324-1.86 0-.946-.605-1.892-2.324-1.892-.5 0-.848.045-1.108.084v3.668z" fill="#3b5998"/></svg>