<svg xmlns="http://www.w3.org/2000/svg" xmlns:xlink="http://www.w3.org/1999/xlink" width="700" height="173" xmlns:v="https://vecta.io/nano"><defs><path id="A" d="M78-134h759v879H78z"/></defs><clipPath id="B"><use xlink:href="#A"/></clipPath><g clip-path="url(#B)"><defs><path id="C" d="M78-134h759v879H78z"/></defs><clipPath id="D"><use xlink:href="#C"/></clipPath><g fill="#100e0f"><path d="M311.605 75.05h-39.883c-1.03 0-1.864.965-1.864 2.16v22.583c0 1.2.834 2.16 1.864 2.16h15.558V130s-3.493 1.38-13.152 1.38c-11.395 0-27.313-4.823-27.313-45.36 0-40.546 16.576-45.88 32.135-45.88 13.47 0 19.274 2.747 22.966 4.07 1.162.4 2.233-.926 2.233-2.12l4.45-21.82c0-.56-.163-1.23-.7-1.687-1.5-1.24-10.648-7.167-33.76-7.167-26.625 0-53.938 13.118-53.938 76.184s31.27 72.463 57.62 72.463c21.817 0 35.052-10.8 35.052-10.8.545-.345.604-1.23.604-1.636v-70.43c.001-1.193-.834-2.158-1.862-2.158m205.53-56.056c0-1.2-.823-2.17-1.853-2.17h-22.458c-1.023 0-1.858.97-1.858 2.17l.007 50.26h-35.006v-50.26c0-1.2-.824-2.17-1.853-2.17H431.67c-1.02 0-1.853.97-1.853 2.17v136.1c0 1.2.832 2.176 1.853 2.176h22.455c1.028 0 1.853-.977 1.853-2.176V96.86h35.006l-.06 58.212c0 1.2.83 2.176 1.86 2.176h22.5c1.028 0 1.85-.977 1.854-2.176v-136.1z" clip-path="url(#D)"/><path d="M353.982 36.84c0-9.363-6.484-16.93-14.482-16.93-8 0-14.478 7.567-14.478 16.93 0 9.354 6.486 16.944 14.478 16.944 8 0 14.482-7.6 14.482-16.944m-1.606 89.526v-62.82c0-1.192-.83-2.168-1.858-2.168h-22.386c-1.028 0-1.947 1.226-1.947 2.42v90c0 2.644 1.424 3.432 3.266 3.432h20.17c2.213 0 2.756-1.26 2.756-3.474v-27.4zM602.5 61.584h-22.284c-1.022 0-1.853.975-1.853 2.174v66.728s-5.664 4.798-13.698 4.798-10.168-4.222-10.168-13.333V63.758c0-1.2-.83-2.174-1.853-2.174h-22.617c-1.02 0-1.856.975-1.856 2.174v62.595c0 27.067 13.024 33.688 30.94 33.688 14.7 0 26.552-9.405 26.552-9.405s.563 4.958.818 5.544.92 1.178 1.64 1.178l14.388-.07c1.02 0 1.856-.978 1.856-2.174l-.008-91.354c.001-1.2-.83-2.175-1.858-2.175m60.898-3.06c-12.657 0-21.266 6.542-21.266 6.542V18.983c0-1.2-.828-2.173-1.852-2.173h-22.52c-1.024 0-1.855.972-1.855 2.173v136.1c0 1.2.83 2.178 1.857 2.178h15.624c.705 0 1.24-.422 1.63-1.156s.95-6.273.95-6.273 9.208 10.105 26.642 10.105c20.466 0 32.202-12.02 32.202-53.97s-18.744-47.43-31.4-47.43m-8.8 76.677c-7.732-.273-12.973-4.334-12.973-4.334v-43.1s5.17-3.673 11.52-4.328c8.023-.833 15.754 1.975 15.754 24.144 0 23.378-3.488 27.994-14.3 27.615M416.917 61.367h-16.845l-.026-25.774c0-.975-.432-1.464-1.4-1.464h-22.953c-.892 0-1.373.457-1.373 1.45v26.634l-12.28 3.476c-.774.257-1.346 1.085-1.346 2.073V84.5c0 1.202.833 2.174 1.857 2.174h11.77v40.263c0 29.903 18.113 32.843 30.336 32.843 5.588 0 12.268-2.078 13.368-2.548.668-.286 1.057-1.088 1.057-1.95l.02-18.413c0-1.2-.876-2.173-1.862-2.173-.98 0-3.495.463-6.08.463-8.272 0-11.076-4.453-11.076-10.222l-.003-38.262h16.848c1.027 0 1.86-.972 1.86-2.174V63.535c-.002-1.202-.834-2.168-1.86-2.168" clip-path="url(#D)"/></g></g><image width="800" height="665" xlink:href="../../Downloads/Octocat/Octocat.png" transform="matrix(.2725 0 0 .2421 0 6)" overflow="visible"/></svg>