<svg xmlns="http://www.w3.org/2000/svg" width="700" height="173" xmlns:v="https://vecta.io/nano"><path d="M160.82 146.376V80.8h15.592v51.78h24.836v13.8H160.82v.004zm91.804-22.512v1.854a16.41 16.41 0 0 1-.09 1.76h-32.722c.12 1.298.498 2.47 1.134 3.52a9.98 9.98 0 0 0 2.447 2.732c.997.774 2.114 1.375 3.354 1.804a11.53 11.53 0 0 0 3.853.651c2.356 0 4.353-.448 5.983-1.343s2.96-2.054 4-3.476l10.334 6.672c-2.116 3.147-4.9 5.57-8.384 7.27s-7.513 2.546-12.102 2.546c-3.387 0-6.588-.542-9.6-1.62s-5.664-2.655-7.932-4.728c-2.266-2.065-4.048-4.612-5.348-7.64s-1.948-6.484-1.948-10.375c0-3.765.634-7.18 1.903-10.234s3-5.652 5.167-7.78 4.74-3.785 7.706-4.96c2.96-1.17 6.164-1.757 9.607-1.757 3.323 0 6.376.57 9.155 1.712a19.97 19.97 0 0 1 7.163 4.955c1.995 2.162 3.547 4.787 4.667 7.876 1.114 3.086 1.672 6.6 1.672 10.558zm-13.686-5.836c0-2.408-.74-4.476-2.22-6.205s-3.703-2.595-6.662-2.595c-1.45 0-2.78.233-4 .693-1.2.465-2.264 1.098-3.173 1.9s-1.63 1.745-2.174 2.825a8.42 8.42 0 0 0-.905 3.38h19.124zm37.434-6.483v17.67c0 2.17.4 3.795 1.227 4.883s2.278 1.624 4.395 1.624a14.92 14.92 0 0 0 2.311-.186c.816-.123 1.495-.306 2.04-.555l.182 11.114c-1.028.37-2.328.693-3.897.975a26.61 26.61 0 0 1-4.715.415c-3.022 0-5.562-.4-7.616-1.16s-3.703-1.9-4.938-3.346-2.13-3.187-2.674-5.2-.816-4.257-.816-6.733v-19.5h-7.252v-11.302h7.16V88.1h14.595v12.133h10.606v11.302h-10.608zm58.74 2.315c-1.2-1.174-2.628-2.16-4.26-2.965a11.54 11.54 0 0 0-5.167-1.205c-1.4 0-2.674.28-3.852.834s-1.768 1.515-1.768 2.872c0 1.296.648 2.22 1.948 2.777s3.4 1.175 6.3 1.854a33.72 33.72 0 0 1 5.123 1.575c1.723.68 3.277 1.575 4.668 2.687s2.507 2.47 3.355 4.076 1.27 3.52 1.27 5.743c0 2.903-.575 5.355-1.723 7.362s-2.645 3.628-4.487 4.863-3.914 2.13-6.208 2.686-4.594.832-6.9.832c-3.688 0-7.296-.6-10.833-1.804s-6.48-2.98-8.837-5.33l8.34-8.984c1.326 1.484 2.96 2.72 4.894 3.705a13.36 13.36 0 0 0 6.165 1.482c1.2 0 2.403-.294 3.58-.88s1.767-1.62 1.767-3.102c0-1.42-.724-2.47-2.174-3.15s-3.715-1.4-6.798-2.134c-1.57-.368-3.143-.86-4.714-1.48a14.66 14.66 0 0 1-4.213-2.5c-1.236-1.054-2.252-2.345-3.036-3.9s-1.178-3.396-1.178-5.56c0-2.778.572-5.14 1.722-7.085s2.628-3.533 4.443-4.77 3.82-2.146 6.025-2.734 4.396-.88 6.574-.88a31.13 31.13 0 0 1 9.923 1.62c3.233 1.083 5.97 2.702 8.205 4.864l-8.166 8.624zm36.078 32.516V80.8h43.146v13.34h-28.2v12.412h26.648v12.7h-26.648v13.617h29.82v13.526H371.2zm84 0V121.18a21.29 21.29 0 0 0-.315-3.704c-.212-1.175-.56-2.208-1.046-3.103s-1.16-1.607-2.037-2.133-1.982-.788-3.3-.788-2.492.265-3.5.788-1.827 1.25-2.494 2.178-1.16 2-1.493 3.196-.498 2.457-.498 3.752v25H425.55v-46.133h14.412v6.394h.182c.545-1 1.25-1.96 2.132-2.914a12.84 12.84 0 0 1 3.08-2.457 18.99 18.99 0 0 1 3.854-1.67c1.39-.433 2.87-.65 4.44-.65 3.02 0 5.588.56 7.705 1.67s3.82 2.55 5.123 4.307c1.3 1.763 2.234 3.785 2.8 6.067s.862 4.57.862 6.854v28.53H455.2v.003zm53.2-31.22c-.85-1.1-1.997-2.004-3.446-2.686s-2.936-1.02-4.442-1.02c-1.574 0-3 .324-4.26.976a10.53 10.53 0 0 0-3.264 2.59c-.904 1.083-1.617 2.333-2.132 3.755s-.77 2.93-.77 4.54c0 1.604.243 3.116.727 4.535s1.2 2.674 2.13 3.753a10.09 10.09 0 0 0 3.354 2.548c1.302.618 2.766.927 4.396.927 1.508 0 3.008-.294 4.486-.882s2.674-1.436 3.58-2.545l8.248 10.28c-1.873 1.853-4.3 3.305-7.253 4.352s-6.103 1.575-9.425 1.575c-3.566 0-6.895-.557-9.988-1.668s-5.774-2.732-8.052-4.862-4.073-4.707-5.38-7.732-1.962-6.452-1.962-10.28c0-3.77.654-7.166 1.962-10.193s3.1-5.604 5.38-7.732c2.277-2.134 4.967-3.77 8.052-4.9 3.094-1.143 6.4-1.712 9.898-1.712a25.39 25.39 0 0 1 4.849.464 31.76 31.76 0 0 1 4.623 1.251c1.48.523 2.842 1.172 4.078 1.947s2.313 1.618 3.218 2.545l-8.605 10.184zm43.564-2.408c-.668-.185-1.316-.305-1.948-.37l-1.86-.093c-1.994 0-3.673.37-5.03 1.107s-2.447 1.63-3.265 2.68-1.405 2.187-1.77 3.418-.542 2.3-.542 3.234v23.647h-14.867v-46.073h14.324v6.67h.18c1.15-2.365 2.778-4.3 4.897-5.786 2.113-1.5 4.562-2.236 7.343-2.236a16.54 16.54 0 0 1 1.77.095c.57.06 1.04.155 1.403.276l-.637 13.43zm34.92 40.574c-.902 2.408-1.917 4.556-3.034 6.44s-2.446 3.486-3.986 4.817c-1.542 1.326-3.356 2.33-5.44 3s-4.548 1.02-7.386 1.02c-1.394 0-2.828-.095-4.308-.28s-2.765-.433-3.85-.74l1.632-12.78c.724.245 1.525.444 2.403.6a13.77 13.77 0 0 0 2.4.23c2.298 0 3.958-.54 4.988-1.62 1.025-1.08 1.9-2.607 2.627-4.585l1.452-3.795-18.856-45.4h16.497l10.062 29.643h.27l8.977-29.643h15.77l-20.218 53.075zm74.333-30.198c0 3.214-.486 6.302-1.453 9.265s-2.37 5.573-4.212 7.827a20.95 20.95 0 0 1-6.756 5.42c-2.658 1.356-5.68 2.037-9.065 2.037a18.62 18.62 0 0 1-7.886-1.711c-2.48-1.144-4.4-2.7-5.803-4.678h-.18V168.6h-14.867v-68.367h14.142v5.653h.273c1.4-1.854 3.306-3.476 5.757-4.865 2.444-1.388 5.33-2.085 8.655-2.085 3.263 0 6.223.65 8.88 1.948s4.9 3.057 6.756 5.28 3.263 4.8 4.26 7.732 1.497 6 1.497 9.22zm-14.414 0a14.21 14.21 0 0 0-.68-4.352c-.452-1.422-1.118-2.672-1.996-3.755s-1.98-1.96-3.308-2.64-2.87-1.02-4.623-1.02c-1.693 0-3.203.34-4.53 1.02s-2.466 1.574-3.4 2.687-1.66 2.378-2.175 3.797-.77 2.87-.77 4.352.256 2.936.77 4.356 1.238 2.683 2.175 3.795 2.067 2 3.4 2.688c1.326.68 2.838 1.02 4.53 1.02 1.752 0 3.292-.34 4.623-1.02s2.432-1.577 3.308-2.688 1.544-2.392 1.996-3.845c.454-1.447.68-2.9.68-4.396zm38.16-11.58v17.67c0 2.17.4 3.795 1.227 4.883s2.28 1.624 4.398 1.624a14.94 14.94 0 0 0 2.311-.186c.814-.123 1.493-.306 2.04-.555l.18 11.114c-1.025.37-2.327.693-3.895.975a27.04 27.04 0 0 1-4.714.415c-3.024 0-5.563-.4-7.618-1.16s-3.7-1.9-4.938-3.346-2.132-3.187-2.675-5.2-.816-4.257-.816-6.733v-19.5h-7.252v-11.302h7.16V88.1h14.593v12.133h10.607v11.302h-10.607zM300.57 79.534c-4.46 0-7.952 3.284-7.952 7.48 0 4.417 2.94 7.384 7.32 7.384.373 0 .727-.033 1.06-.104-.7 3.27-3.783 5.618-6.698 6.088l-.593.096v7.052l.768-.075c3.535-.344 7.027-1.986 9.586-4.503 3.336-3.285 5.098-8.027 5.098-13.718.001-5.62-3.612-9.7-8.588-9.7z" fill="#2c3c69"/><path d="M99.245 80.99h-16.43v-8.62c0-6.885-5.483-12.485-12.22-12.485S58.377 65.488 58.377 72.37v8.62h-16.43v-8.62c0-16.142 12.85-29.277 28.65-29.277s28.65 13.133 28.65 29.277v8.62z" fill="#f9a11d"/><path d="M105.872 80.99h-70.55c-3.013 0-5.477 2.518-5.477 5.597v53.332c0 3.08 2.464 5.595 5.477 5.595h70.55c3.013 0 5.477-2.515 5.477-5.595V86.588c0-3.08-2.465-5.597-5.477-5.597zm-31.7 35.016v7.23c0 2.018-1.603 3.653-3.575 3.653s-3.574-1.638-3.574-3.653v-7.225c-2.2-1.275-3.685-3.684-3.685-6.452 0-4.098 3.25-7.418 7.26-7.418s7.258 3.324 7.258 7.418c.001 2.764-1.485 5.174-3.683 6.448z" fill="#2c3c69"/><path d="M28.17 73.038H11.145c-2.76 0-4.998-2.286-4.998-5.106s2.237-5.108 4.998-5.108H28.17c2.76 0 4.998 2.286 4.998 5.108s-2.24 5.106-4.998 5.106zm12-27.365a4.91 4.91 0 0 1-3.172-1.163L23.522 33.195c-2.13-1.793-2.44-5-.684-7.2s4.902-2.493 7.035-.702L43.34 36.618c2.13 1.792 2.44 5 .684 7.2a4.93 4.93 0 0 1-3.863 1.865zm30.436-12.028c-2.76 0-5-2.286-5-5.107V11.002c0-2.82 2.238-5.107 5-5.107s4.998 2.287 4.998 5.107v17.536c0 2.82-2.238 5.107-4.998 5.107zm30.434 12.028c-1.445 0-2.875-.634-3.863-1.864a5.2 5.2 0 0 1 .684-7.2l13.466-11.316c2.133-1.792 5.283-1.476 7.035.702a5.19 5.19 0 0 1-.684 7.191L104.203 44.5c-.93.783-2.054 1.163-3.172 1.163zm29.018 27.365h-17.186c-2.76 0-4.998-2.286-4.998-5.106s2.237-5.108 4.998-5.108h17.186c2.76 0 4.998 2.286 4.998 5.108s-2.237 5.106-4.998 5.106z" fill="#f9a11d"/></svg>