<svg xmlns="http://www.w3.org/2000/svg" width="700" height="173" xmlns:v="https://vecta.io/nano"><path d="M14.2 28.276v-4.868h51.265v4.823H56.04s-3.76.027-3.76 1.995v51.4h31.66s5.344 1.607 6.766-13.14h13.173V86.54H14.327v-4.347h9.792s4.183-.663 4.183-2.223V30.01s-.445-1.607-5.074-1.607l-9.018-.14zm97.163 20.274v-3.78l24.392-4.916h9.438V80.6s.178 2.174 5.518 2.174h6.588v3.875h-46.113v-4.065h6.942s4.63-.284 4.986-1.797V48.55h-11.75zM209.1 86.647H165.5v-4.065h6.766s4.626-.283 4.805-1.984v-32.33h-12.107v-3.97l24.927-4.54h8.902v5.766s19.408-5.577 30.804-5.577c0 0 22.8-.946 22.967 12.3v27.98s.536 2.27 5.697 2.27h6.945v4.16H221.75V82.3h6.053s3.205-.095 3.916-1.796v-24.4s-1.067-8.414-16.558-8.13c0 0-10.682.756-16.202 1.796v30.818s.713 1.607 4.453 1.794h5.875l-.178 4.257zm73.354-38.474h-11.93V44.4l24.215-4.537h9.8v30.82s-.7 9.736 16.56 8.98c0 0 13.7-.756 15.5-1.514V48.28h-11.75v-3.782l23.857-4.727h9.793v40.555s-.178 1.9 4.45 2.08h6.943v4.443H336.6v-5.104s-16.914 5.956-30.623 5.86c0 0-22.792.662-23.502-13.14l-.001-26.28zm93.116-3.31v-4.35h42.555v4.254s-9.437-.2-6.767 2.268l13.888 10.682 13.7-10.682s3.385-2.173-7.48-1.986v-4.347h32.583v4.16s-8.012.2-11.393 2.08l-21 14.937 26.173 19.947s2.848.945 9.435 1.04v3.876h-41.84v-3.5s9.437 0 6.408-2.74L417.065 68.78l-15.5 11.912s-3.916 1.984 7.833 1.9v3.97h-34.184v-3.875s8 .284 11.396-2.08l23.145-15.978-22.8-17.677c0 .001-1.07-1.983-11.396-2.078zm90.12-6.714h-1.864v-2.442h9.28v2.442h-1.787v-1.453h-1.9v3.454h1.823v.95h-5.478v-.93h1.75v-3.473h-1.86zm8.368 2.97v-.968h.912v-3.454h-.912v-1.05h2.737v1.03h1.027v1.05h.875v.423h.95v-.483h.988v-.93h.876v-1.07h2.775v1h-.914v3.493h.914v.97h-4.603v-.988h1.866v-1.495h-.95v.464h-.915v.546h-.987v-.505h-.875v-.526h-1.027V40.1h1.902v1.04z"/><linearGradient id="A" gradientUnits="userSpaceOnUse" x1="6.822" y1="125.263" x2="464.675" y2="125.263"><stop offset="0" stop-color="#fadc00"/><stop offset=".009" stop-color="#fada00"/><stop offset=".153" stop-color="#f5b715"/><stop offset=".299" stop-color="#f09424"/><stop offset=".443" stop-color="#ec752a"/><stop offset=".587" stop-color="#e95b2b"/><stop offset=".728" stop-color="#e8452b"/><stop offset=".867" stop-color="#e7382a"/><stop offset="1" stop-color="#e6332a"/><stop offset="1" stop-color="#fff"/></linearGradient><path d="M6.825 125.66s-.268-8.79 25.954-12.017c0 0 89.73-14.038 402.99-18.292 0 0 56.08 1.277 12.017 9.36l-182.668 14.037S96.07 130.232 39.99 148.95c0 0-7.623 3.07-12.404 5.716 0 0-4.602 1.623-8.422-.93-.001.001-12.556-6.555-12.338-28.076z" fill="url(#A)"/><linearGradient id="B" gradientUnits="userSpaceOnUse" x1="567.847" y1="77.361" x2="565.13" y2="140.917"><stop offset=".644" stop-color="#fff"/><stop offset=".683" stop-color="#ccc"/><stop offset=".729" stop-color="#979797"/><stop offset=".775" stop-color="#686868"/><stop offset=".822" stop-color="#434343"/><stop offset=".868" stop-color="#262626"/><stop offset=".913" stop-color="#111"/><stop offset=".957" stop-color="#040404"/><stop offset="1"/></linearGradient><path d="M611.987 99.063c0 9.81-20.177 17.76-45.067 17.76s-45.07-7.952-45.07-17.76 20.177-17.76 45.07-17.76 45.067 7.95 45.067 17.76z" fill="url(#B)"/><path d="M602.776 157.26s-22.668-.858-26.98-1.433c0 0-5.396 0-10.254.574 0 0-19.968 1.72-30.222.858l-54.503-38.68s-8.633-9.168 14.03-30.658c0 0 22.128-18.05 25.364-19.77s10.793-10.314 10.253-20.63c0 0-15.1-36.674 39.933-37.82 0 0 40.474-4.013 47.49 20.342 0 0 .537 19.77 2.16 23.496 0 0-4.857 3.438 21.045 19.77 0 0 49.646 29.512 20.506 49.28l-58.82 34.67z"/><linearGradient id="C" gradientUnits="userSpaceOnUse" x1="580.522" y1="10.602" x2="580.878" y2="114.49"><stop offset="0"/><stop offset=".109" stop-color="#333"/><stop offset=".238" stop-color="#686868"/><stop offset=".369" stop-color="#979797"/><stop offset=".499" stop-color="#bcbcbc"/><stop offset=".628" stop-color="#d9d9d9"/><stop offset=".755" stop-color="#eee"/><stop offset=".88" stop-color="#fbfbfb"/><stop offset="1" stop-color="#fff"/><stop offset="1" stop-color="#fff"/></linearGradient><path d="M539.474 58.902s-1.87 13.045-16.826 28.644c0 0-11.75 11.91-13.62 24.672 0 0-16.556-9.926 6.678-29.635 0 0 1.65-1.135.512-1.397 0 0-.77-.424-2.245.948 0 0-24.26 18.883-11.797 30.417 0 0 2.85 2.553 8.9 5.293 0 0 14.244 5 18.34 7.28s16.737 8.887 9.257 12.572c0 0-2.85 1.606-7.655 1.324 0 0 7.298 11.817 41.483 11.154 0 0 20.83-1.23 35.254-7.846l55.372-22.5-1.425-1.606s7.3-6.052-17.45-11.155c0 0 8.9-12.857-19.23-28.266 0 0-3.38-1.23-1.957.567 0 0 25.64 12.1 14.955 26.66l-5.52-.19s-4.808-11.722-16.204-22.594c0 0-18.07-20.23-18.606-28.17s-58.22 3.828-58.22 3.828z" fill="url(#C)"/><linearGradient id="D" gradientUnits="userSpaceOnUse" x1="569.247" y1="53.256" x2="567.234" y2="82.88"><stop offset=".77" stop-color="#fff"/><stop offset=".795" stop-color="#ccc"/><stop offset=".825" stop-color="#979797"/><stop offset=".855" stop-color="#686868"/><stop offset=".885" stop-color="#434343"/><stop offset=".915" stop-color="#262626"/><stop offset=".944" stop-color="#111"/><stop offset=".972" stop-color="#040404"/><stop offset="1"/></linearGradient><path d="M593.815 67.35c0 4.8-11.43 8.693-25.528 8.693s-25.524-3.893-25.524-8.693 11.43-8.693 25.524-8.693 25.528 3.89 25.528 8.693z" opacity=".5" fill="url(#D)"/><path d="M535.184 54.315s19.265 13.1 45.882 3.16c0 0 3.328-2.14 13.484-3.534" fill="none" stroke="#f7a81c" stroke-width=".677" stroke-miterlimit="10"/><linearGradient id="E" gradientUnits="userSpaceOnUse" x1="569.478" y1="7.367" x2="572.481" y2="46.836"><stop offset=".124" stop-color="#fff"/><stop offset=".197" stop-color="#d7d7d7"/><stop offset=".415" stop-color="#656565"/><stop offset=".564" stop-color="#1c1c1c"/><stop offset=".634"/><stop offset=".634" stop-color="#20201f"/><stop offset=".728" stop-color="#050505"/></linearGradient><path d="M603.992 22.45c1.2 7.167-12.728 13.675-31.09 14.535s-34.21-4.25-35.405-11.416 12.727-13.673 31.1-14.534 34.216 4.25 35.406 11.415z" opacity=".5" fill="url(#E)"/><path d="M557.52 39.96c0 4.816-4.73 8.72-10.563 8.72s-10.563-3.905-10.563-8.72 4.73-8.72 10.563-8.72 10.563 3.904 10.563 8.72zm40.194.26c0 5.595-6.6 10.132-14.717 10.132s-14.72-4.537-14.72-10.132 6.6-10.13 14.72-10.13 14.717 4.535 14.717 10.13z" fill="#cac7c6"/><path d="M550.724 42.05a4.46 4.46 0 0 1-4.462 4.454c-2.46 0-4.456-1.995-4.456-4.454s1.997-4.452 4.456-4.452c2.465 0 4.462 1.994 4.462 4.452z"/><linearGradient id="F" gradientUnits="userSpaceOnUse" x1="545.788" y1="35.295" x2="547.33" y2="47.551"><stop offset="0" stop-color="#fff"/><stop offset=".043" stop-color="#dcdcdc"/><stop offset=".112" stop-color="#a9a9a9"/><stop offset=".185" stop-color="#7c7c7c"/><stop offset=".26" stop-color="#565656"/><stop offset=".337" stop-color="#363636"/><stop offset=".418" stop-color="#1e1e1e"/><stop offset=".502" stop-color="#0d0d0d"/><stop offset=".594" stop-color="#030303"/><stop offset=".707"/></linearGradient><path d="M549.362 40.285c0 1.13-1.318 2.045-2.945 2.045s-2.948-.915-2.948-2.045 1.317-2.046 2.948-2.046 2.945.915 2.945 2.046z" opacity=".5" fill="url(#F)"/><path d="M589.262 42.25c0 3.545-3.248 6.418-7.255 6.418s-7.26-2.873-7.26-6.418 3.247-6.418 7.26-6.418 7.255 2.874 7.255 6.418z"/><linearGradient id="G" gradientUnits="userSpaceOnUse" x1="581.343" y1="32.481" x2="583.575" y2="50.224"><stop offset="0" stop-color="#fff"/><stop offset=".043" stop-color="#dcdcdc"/><stop offset=".112" stop-color="#a9a9a9"/><stop offset=".185" stop-color="#7c7c7c"/><stop offset=".26" stop-color="#565656"/><stop offset=".337" stop-color="#363636"/><stop offset=".418" stop-color="#1e1e1e"/><stop offset=".502" stop-color="#0d0d0d"/><stop offset=".594" stop-color="#030303"/><stop offset=".707"/></linearGradient><path d="M587.048 39.705c0 1.63-2.147 2.95-4.797 2.95s-4.795-1.32-4.795-2.95 2.146-2.947 4.795-2.947 4.797 1.32 4.797 2.947z" opacity=".5" fill="url(#G)"/><path d="M540.505 58.59s-10.066-2.673-7.778-6.318c0 0 .15-1.944 5.035-3.807l4.882-1.864c.608-.243 11.442-4.373 14.797-4.86s10.68-.566 15.4.972 16.017 3.89 18 4.132 7.475 1.863 8.236 3.563-.762 4.13-3.202 5.588-6.714 2.997-11.747 4.132-6.864 1.944-10.068 2.916-12.052 2.917-19.68.89-6.56-2.835-9-3.563-4.885-1.782-4.885-1.782z" fill="#f1883b"/><path d="M542.12 58.446s-9.64-2.557-7.445-6.048c0 0 .145-1.86 4.815-3.643l4.672-1.783c.585-.232 10.953-4.186 14.165-4.65s10.224-.542 14.75.93 15.333 3.72 17.228 3.953 7.156 1.783 7.886 3.41-.732 3.955-3.065 5.35-6.426 2.87-11.243 3.954-6.57 1.86-9.64 2.79c-3.062.93-11.532 2.79-18.83.853s-6.278-2.713-8.616-3.412-4.674-1.706-4.674-1.706z" fill="#fbb91d"/><linearGradient id="H" gradientUnits="userSpaceOnUse" x1="564.193" y1="41.515" x2="562.72" y2="65.251"><stop offset="0" stop-color="#fff"/><stop offset=".095" stop-color="#ccc"/><stop offset=".209" stop-color="#979797"/><stop offset=".324" stop-color="#686868"/><stop offset=".439" stop-color="#434343"/><stop offset=".552" stop-color="#262626"/><stop offset=".663" stop-color="#111"/><stop offset=".773" stop-color="#040404"/><stop offset=".878"/></linearGradient><path d="M545.578 48.145s7.18-5.857 17.166-5.95c0 0 16.458 1.86 19.26 5.673 0 0-3.5 5.206-19.1 5.206 0 0-14.707.466-17.336-4.928z" opacity=".1" fill="url(#H)"/><linearGradient id="I" gradientUnits="userSpaceOnUse" x1="503.435" y1="140.56" x2="504.381" y2="60.481"><stop offset=".084"/><stop offset=".112" stop-color="#333"/><stop offset=".145" stop-color="#686868"/><stop offset=".179" stop-color="#979797"/><stop offset=".212" stop-color="#bcbcbc"/><stop offset=".245" stop-color="#d9d9d9"/><stop offset=".278" stop-color="#eee"/><stop offset=".31" stop-color="#fbfbfb"/><stop offset=".34" stop-color="#fff"/><stop offset=".56" stop-color="#fff"/></linearGradient><path d="M491.488 117.56s-12.818-11.532 5.343-28.36c0 0 6.768-7.184 19.94-15.503 0 0 7.48-3.97 2.494.567 0 0-14.956 12.857-17.09 15.693s-13.9 11.723 1.777 28.927-12.462-1.324-12.462-1.324z" opacity=".3" fill="url(#I)"/><path d="M543.19 150.382c.237-4.142-7.556-8.736-15.82-13.98s-13.863-12.895-13.863-12.895c-7.685-9.11-18.895-9.025-21.664-8.85-7.76-.027-13.995 3.967-13.995 3.967-4.012 3.075-7.59 4.7-9.913 5.525l-.357.023c-23.688 1.41-16.01 14.464-16.01 14.464 3.92 4.402-2.507 9.325-2.507 9.325-4.748 8.174 8.367 8.568 10.8 8.69l20.896 1.15c7.746.388 20.89 4.003 20.89 4.003 12.995 2.778 25.176 1.26 25.176 1.26 18.453-4.424 16.377-12.68 16.377-12.68z" fill="#be7247"/><path d="M541.64 149.92c.26-3.972-7.246-8.36-15.21-13.368s-13.32-12.332-13.32-12.332c-5.015-5.935-11.644-7.78-16.215-8.298-4.834-.825-12.428.067-16.687 2.657-4.593 2.792-5.755 3.35-9.3 5.23-1.126.598-1.968.96-2.6 1.178-22.563 1.504-15.306 13.885-15.306 13.885 3.76 4.212-2.506 8.946-2.506 8.946-4.667 7.85 8.033 8.198 10.378 8.3l20.228 1.053c7.5.354 20.198 3.79 20.198 3.79 12.56 2.634 24.37 1.148 24.37 1.148 17.907-4.286 15.967-12.197 15.967-12.197z" fill="#f08128"/><path d="M540.05 149.533c.225-3.86-7.04-8.14-14.748-13.02-7.704-4.88-12.922-12.01-12.922-12.01-6.94-8.23-16.99-8.4-19.945-8.255a33.09 33.09 0 0 0-2.643.193c-3.613.412-7.27 1.425-9.807 3.04-4.684 2.985-5.976 3.654-9.457 5.59l-1.003.065c-22.106 1.323-14.95 13.482-14.95 13.482 3.65 4.1-2.354 8.688-2.354 8.688-4.44 7.62 7.8 7.983 10.055 8.095l19.502 1.063c7.228.357 19.486 3.724 19.486 3.724 12.12 2.584 23.488 1.164 23.488 1.164 17.225-4.128 15.3-11.82 15.3-11.82z" fill="#ffd400"/><linearGradient id="J" gradientUnits="userSpaceOnUse" x1="522.437" y1="183.505" x2="466.638" y2="89.265"><stop offset=".455" stop-color="#e1da1d"/><stop offset=".483" stop-color="#e4de33"/><stop offset=".558" stop-color="#ebe668"/><stop offset=".634" stop-color="#f1ee97"/><stop offset=".71" stop-color="#f6f4bc"/><stop offset=".784" stop-color="#faf9d9"/><stop offset=".858" stop-color="#fdfcee"/><stop offset=".931" stop-color="#fefefb"/><stop offset="1" stop-color="#fff"/><stop offset="1" stop-color="#fff"/></linearGradient><path d="M516.738 135.206s-11.097-19.775-25.29-15.538-17.92 7.75-17.92 7.75-15.8 4.81 13.69 16.26l29.52-8.473z" opacity=".6" fill="url(#J)"/><linearGradient id="K" gradientUnits="userSpaceOnUse" x1="644.319" y1="62.622" x2="654.902" y2="147.872"><stop offset="0"/><stop offset=".037" stop-color="#333"/><stop offset=".081" stop-color="#686868"/><stop offset=".126" stop-color="#979797"/><stop offset=".17" stop-color="#bcbcbc"/><stop offset=".214" stop-color="#d9d9d9"/><stop offset=".257" stop-color="#eee"/><stop offset=".3" stop-color="#fbfbfb"/><stop offset=".34" stop-color="#fff"/><stop offset=".56" stop-color="#fff"/></linearGradient><path d="M651.396 115.645S668.69 99.35 633.13 72.583c0 0-9.256-9.3.485-3.104 0 0 43.598 25.474 28.983 48.62l-11.202-2.455z" opacity=".2" fill="url(#K)"/><path d="M626.104 114.82s-13.695 1.04-14.785 12.487c0 0 0 8.2-4.13 14.685s-8.263 12.258-5.22 16.073c0 0 3.697 8.094 23.915 8.672 0 0 12.394-.924 22.6-6.013 0 0 9.785-5.896 16.742-7.746l18.697-5.09c2.172-.578 14.13-3.467 4.127-10.175 0 0-9.346-3.354-8.693-8.21 0 0-1.738-13.645-24.786-10.407s-28.48-4.278-28.48-4.278z" fill="#be7247"/><path d="M626.514 115.943s-13.287.996-14.343 11.953c0 0 0 7.858-4.008 14.057s-8.015 11.73-5.063 15.385c0 0 3.586 7.747 23.2 8.3 0 0 12.023-.885 21.938-5.755 0 0 9.5-5.644 16.24-7.414l18.137-4.87c2.107-.554 13.7-3.32 4.01-9.74 0 0-9.07-3.21-8.437-7.858 0 0-1.688-13.06-24.045-9.96s-27.628-4.097-27.628-4.097z" fill="#f08128"/><path d="M626.843 116.4s-12.784.968-13.798 11.63c0 0 0 7.647-3.855 13.68s-7.71 11.417-4.867 14.972c0 0 3.447 7.538 22.318 8.077 0 0 11.567-.862 21.104-5.602 0 0 9.132-5.492 15.623-7.215l17.453-4.738c2.026-.54 13.19-3.232 3.854-9.48 0 0-8.725-3.122-8.116-7.647 0 0-1.622-12.71-23.13-9.692-21.51 3.012-26.586-3.987-26.586-3.987z" fill="#ffd400"/><linearGradient id="L" gradientUnits="userSpaceOnUse" x1="630.071" y1="175.078" x2="643.56" y2="93.662"><stop offset=".455" stop-color="#e1da1d"/><stop offset=".483" stop-color="#e4de33"/><stop offset=".558" stop-color="#ebe668"/><stop offset=".634" stop-color="#f1ee97"/><stop offset=".71" stop-color="#f6f4bc"/><stop offset=".784" stop-color="#faf9d9"/><stop offset=".858" stop-color="#fdfcee"/><stop offset=".931" stop-color="#fefefb"/><stop offset="1" stop-color="#fff"/><stop offset="1" stop-color="#fff"/></linearGradient><path d="M616.28 138.834s-3.14-20.566 12.982-19.344 21.983 3.78 21.983 3.78 18.008 1.445-1.675 17.788l-33.3-2.223z" opacity=".6" fill="url(#L)"/><path d="M624.102 115.05s.994-7.317 13.783-5.387c0 0 12.79 1.58 19.513 5.387 0 0 5.844 3.628-2.205 6.964 0 0-5.183 2.343-9.263 3.163 0 0-11.023 2.75-16.866-.938 0 0-5.072-3.22-4.962-9.19z"/><linearGradient id="M" gradientUnits="userSpaceOnUse" x1="633.213" y1="104.68" x2="641.394" y2="121.272"><stop offset=".062" stop-color="#454544"/><stop offset=".075" stop-color="#6a6a69"/><stop offset=".093" stop-color="#979797"/><stop offset=".111" stop-color="#bdbdbc"/><stop offset=".129" stop-color="#dadad9"/><stop offset=".146" stop-color="#eee"/><stop offset=".164" stop-color="#fbfbfb"/><stop offset=".18" stop-color="#fff"/><stop offset="1"/></linearGradient><path d="M627.236 114.997s.666-4.925 9.273-3.625c0 0 8.604 1.065 13.13 3.625 0 0 3.932 2.442-1.48 4.688 0 0-3.49 1.574-6.232 2.127 0 0-7.418 1.852-11.353-.63 0 0-3.4-2.166-3.337-6.184z" fill="url(#M)"/><ellipse cx="135.21" cy="25.83" rx="13.155" ry="6.983"/></svg>