<svg xmlns="http://www.w3.org/2000/svg" width="700" height="173" xmlns:v="https://vecta.io/nano"><path d="M692 78.702v-12.9h-14.894V45.72l-.5.166-14.265 4.698v15.208h-22.08V57.32c0-3.945.818-6.964 2.435-8.977 1.604-2 3.897-3 6.822-3 2.104 0 4.282.533 6.474 1.585l.55.264V33.596l-.26-.102c-2.044-.792-4.824-1.2-8.272-1.2-4.344 0-8.3 1.018-11.732 3.035s-6.155 4.903-8.053 8.57c-1.892 3.662-2.852 7.89-2.852 12.57v9.314H615v12.91h10.37v54.4h14.888v-54.4h22.082v34.563c0 14.235 6.238 21.45 18.54 21.45 2.02 0 4.148-.255 6.32-.754 2.212-.514 3.72-1.025 4.604-1.572l.196-.124v-13.03l-.605.43c-.81.58-1.814 1.054-2.994 1.405-1.186.36-2.174.54-2.94.54-2.883 0-5.015-.836-6.338-2.486-1.337-1.664-2.017-4.575-2.017-8.647V78.702H692zm-110.25 42.91c-5.404 0-9.665-1.93-12.666-5.73-3.02-3.818-4.553-9.262-4.553-16.18 0-7.136 1.53-12.72 4.554-16.607 3.004-3.86 7.224-5.82 12.543-5.82 5.163 0 9.272 1.87 12.216 5.564 2.96 3.713 4.46 9.254 4.46 16.473 0 7.31-1.412 12.922-4.196 16.678-2.764 3.728-6.922 5.62-12.358 5.62m.662-57.44c-10.31 0-18.498 3.25-24.338 9.665-5.834 6.414-8.793 15.29-8.793 26.384 0 10.537 2.888 19.013 8.584 25.188s13.448 9.306 23.04 9.306c9.993 0 18.02-3.297 23.855-9.8 5.835-6.495 8.79-15.287 8.79-26.122 0-10.702-2.773-19.24-8.248-25.375s-13.178-9.247-22.9-9.247m-57.136 0c-7.012 0-12.813 1.93-17.245 5.737-4.458 3.83-6.72 8.853-6.72 14.93 0 3.16.488 5.966 1.448 8.346.968 2.39 2.463 4.49 4.45 6.256 1.973 1.75 5.017 3.584 9.05 5.45 3.392 1.502 5.92 2.772 7.526 3.773 1.57.98 2.685 1.968 3.314 2.93.6.94.922 2.227.922 3.814 0 4.52-3.146 6.722-9.62 6.722-2.4 0-5.14-.54-8.14-1.604-2.98-1.048-5.79-2.582-8.335-4.55l-.618-.478v15.43l.227.114c2.106 1.046 4.763 1.93 7.894 2.623 3.124.695 5.963 1.05 8.43 1.05 7.61 0 13.737-1.94 18.2-5.77 4.5-3.856 6.78-8.997 6.78-15.286 0-4.536-1.227-8.427-3.646-11.564-2.404-3.11-6.575-5.97-12.395-8.494-4.635-2.002-7.604-3.665-8.828-4.94-1.182-1.233-1.78-2.977-1.78-5.185 0-1.957.74-3.525 2.26-4.795 1.53-1.276 3.664-1.925 6.337-1.925 2.48 0 5.018.42 7.542 1.248s4.738 1.934 6.587 3.288l.61.447V67.104l-.233-.108c-1.706-.788-3.957-1.46-6.688-2.008-2.72-.543-5.19-.817-7.336-.817M462.5 121.61c-5.402 0-9.666-1.93-12.667-5.73-3.02-3.818-4.55-9.26-4.55-16.18 0-7.137 1.528-12.722 4.552-16.608 3.003-3.86 7.22-5.82 12.544-5.82 5.16 0 9.27 1.87 12.214 5.564 2.96 3.713 4.46 9.254 4.46 16.473 0 7.31-1.413 12.922-4.197 16.678-2.766 3.728-6.92 5.62-12.358 5.62m.663-57.44c-10.313 0-18.502 3.25-24.337 9.665s-8.795 15.29-8.795 26.384c0 10.542 2.9 19.013 8.586 25.188s13.446 9.306 23.038 9.306c9.992 0 18.02-3.297 23.855-9.8 5.835-6.495 8.792-15.287 8.792-26.122 0-10.702-2.775-19.24-8.25-25.375s-13.18-9.247-22.89-9.247m-55.732 13.276V65.792h-14.706v67.3h14.706V98.665c0-5.854 1.233-10.663 3.666-14.296 2.402-3.59 5.604-5.408 9.512-5.408 1.325 0 2.813.235 4.423.7 1.593.462 2.748.964 3.43 1.492l.618.482v-15.96l-.237-.1c-1.37-.626-3.308-.942-5.76-.942-3.696 0-7.003 1.278-9.836 3.795-2.487 2.212-4.284 5.245-5.658 9.027h-.158zM366.39 64.17c-6.748 0-12.767 1.557-17.885 4.627-5.13 3.077-9.097 7.47-11.794 13.056-2.688 5.573-4.052 12.082-4.052 19.34 0 6.358 1.323 12.193 3.937 17.337 2.615 5.15 6.318 9.182 11.004 11.977 4.68 2.79 10.1 4.207 16.08 4.207 6.99 0 12.956-1.505 17.74-4.47l.194-.12v-14.503l-.618.486a27.03 27.03 0 0 1-7.195 4.033c-2.6.977-4.97 1.47-7.048 1.47-5.77 0-10.402-1.944-13.766-5.776-3.37-3.837-5.08-9.225-5.08-16.004 0-6.822 1.782-12.35 5.294-16.427 3.502-4.065 8.143-6.128 13.794-6.128 4.834 0 9.544 1.762 14 5.242l.617.482V67.72l-.2-.12c-1.676-1.01-3.965-1.845-6.804-2.478-2.827-.632-5.593-.95-8.22-.95m-43.86 1.62H307.82V133.1h14.707V65.792zm-7.204-28.67c-2.42 0-4.53.887-6.266 2.645-1.74 1.762-2.625 3.982-2.625 6.6 0 2.578.872 4.756 2.597 6.472 1.714 1.71 3.833 2.578 6.295 2.578a8.71 8.71 0 0 0 6.321-2.575c1.746-1.72 2.632-3.896 2.632-6.475 0-2.527-.862-4.724-2.56-6.53s-3.847-2.716-6.394-2.716M278.63 60.827v72.264h15.01V39.183h-20.773l-26.404 69.752-25.625-69.752H199.22V133.1h14.105V60.82h.484l27.057 72.27H251.5l26.637-72.264h.483z" fill="#706d6e"/><path d="M79.185,82.274H10V7.802h69.185V82.274z" fill="#f1511b"/><path d="M155.574 82.274H86.4V7.802h69.185l-.001 74.472z" fill="#80cc28"/><path d="M79.184 164.53H10v-74.47h69.184v74.47z" fill="#00adef"/><path d="M155.574 164.53H86.4v-74.47h69.185l-.001 74.47z" fill="#fbbc09"/></svg>