<svg xmlns="http://www.w3.org/2000/svg" width="700" height="173" xmlns:v="https://vecta.io/nano"><path d="M225.434 114.935c0 9.614 1.726 17.324 5.165 23.127 3.443 5.746 8.002 8.623 13.678 8.623s10.236-2.877 13.678-8.623c3.442-5.803 5.166-13.513 5.166-23.127 0-9.957-1.712-17.845-5.115-23.7s-7.982-8.775-13.73-8.775-10.325 2.93-13.73 8.775-5.113 13.737-5.113 23.7m-19.214-.3c0-16.264 3.5-29.4 10.485-39.4 7.03-10.044 16.218-15.065 27.57-15.065 11.392 0 20.6 5.02 27.616 15.065 7.03 10.04 10.544 23.18 10.544 39.4 0 16.326-3.513 29.47-10.544 39.467-6.985 9.993-16.192 14.992-27.616 14.992s-20.632-5-27.622-14.992c-6.954-9.997-10.434-23.14-10.434-39.467m102.564 44.635l-23.63-78.787c-.32-.984-.57-2.055-.75-3.183a23.23 23.23 0 0 1-.266-3.527c0-3.353.874-6.136 2.6-8.345 1.743-2.22 3.92-3.33 6.544-3.33 1.92 0 3.48.788 4.68 2.332 1.245 1.512 2.382 4.107 3.417 7.78l16.332 58.487 15.164-57.633c1.03-4.098 2.205-6.954 3.52-8.56 1.3-1.6 3.052-2.4 5.212-2.4 2.662 0 4.755.974 6.282 2.9 1.527 1.936 2.292 4.584 2.292 7.925a26.98 26.98 0 0 1-.327 4.1c-.172 1.375-.46 2.713-.848 4.04l-22.884 77.3c-1.028 3.5-2.24 5.993-3.62 7.5-1.38 1.513-3.155 2.266-5.318 2.266-2.02 0-3.7-.687-5-2.05-1.277-1.368-2.414-3.633-3.4-6.797M372.9 124.47v26.247c0 5.6-.728 9.794-2.178 12.514-1.457 2.73-3.672 4.106-6.653 4.106s-5.2-1.375-6.66-4.106c-1.45-2.723-2.177-6.904-2.177-12.514v-72.3c0-5.606.727-9.773 2.177-12.513 1.462-2.776 3.68-4.167 6.66-4.167s5.196 1.4 6.653 4.167c1.45 2.74 2.178 6.907 2.178 12.513v24.328h32.47V78.428c0-5.606.726-9.773 2.175-12.513 1.457-2.776 3.68-4.167 6.662-4.167s5.195 1.4 6.647 4.167c1.455 2.74 2.177 6.907 2.177 12.513v72.3c0 5.6-.72 9.794-2.177 12.514-1.452 2.73-3.672 4.106-6.647 4.106-2.98 0-5.205-1.375-6.662-4.106-1.45-2.723-2.175-6.904-2.175-12.514V124.47H372.9" fill="#0b4499"/><path d="M432.624 153.898c0-3.63.975-6.722 2.93-9.267 1.946-2.6 4.293-3.887 7.018-3.887 2.708 0 5.006 1.297 6.92 3.887 1.915 2.545 2.88 5.636 2.88 9.267 0 3.673-.965 6.787-2.88 9.333-1.884 2.545-4.188 3.826-6.92 3.826-2.797 0-5.16-1.28-7.074-3.826s-2.875-5.66-2.875-9.333m63.397 15.206c-11.4 0-20.568-4.978-27.52-14.92-6.956-10-10.435-23.174-10.435-39.54 0-15.986 3.603-29.046 10.805-39.177 7.203-10.18 16.32-15.28 27.354-15.28 6.5 0 11.98 1.655 16.448 4.955 4.5 3.3 6.758 7.134 6.758 11.52 0 2.836-.74 5.302-2.234 7.434-1.5 2.123-3.244 3.184-5.27 3.184-1.128 0-3.442-.66-6.92-1.988-3.44-1.355-6.333-2.042-8.67-2.042-5.785 0-10.4 2.903-13.898 8.696-3.44 5.746-5.156 13.5-5.156 23.268 0 9.572 1.754 17.167 5.267 22.775 3.55 5.556 8.317 8.35 14.32 8.35 2.766 0 5.92-.885 9.47-2.624 3.55-1.788 5.887-2.688 7.026-2.688 1.8 0 3.438 1.037 4.888 3.113 1.462 2.072 2.184 4.458 2.184 7.146 0 4.852-2.358 9.05-7.07 12.58-4.685 3.496-10.47 5.235-17.346 5.235m46.827-54.166c0 9.614 1.72 17.324 5.158 23.127 3.445 5.746 8.007 8.623 13.674 8.623 5.688 0 10.242-2.877 13.687-8.623 3.436-5.803 5.162-13.513 5.162-23.127 0-9.957-1.705-17.845-5.1-23.7s-7.98-8.775-13.74-8.775c-5.742 0-10.32 2.93-13.724 8.775-3.412 5.846-5.1 13.737-5.1 23.7m-19.22-.3c0-16.264 3.498-29.4 10.48-39.4C541.14 65.2 550.33 60.2 561.68 60.2c11.4 0 20.603 5.02 27.627 15.065s10.535 23.18 10.535 39.4c0 16.326-3.5 29.47-10.535 39.467-6.992 9.993-16.2 14.992-27.627 14.992-11.418 0-20.626-5-27.62-14.992-6.95-9.997-10.43-23.14-10.43-39.467m81.648 33.435l9.468-70.23c.78-5.803 2.094-9.92 3.94-12.373 1.873-2.502 4.56-3.75 8.037-3.75 3.294 0 5.964 1.147 7.98 3.46s3.48 5.803 4.362 10.475l11.767 61.516 11.014-61.652c.812-4.585 2.23-8.022 4.26-10.338 2.018-2.315 4.63-3.46 7.815-3.46 3.65 0 6.46 1.324 8.4 3.954 1.955 2.593 3.302 6.93 4.04 13.013l8.63 70.87a48.07 48.07 0 0 1 .315 3.051c.07.94.1 1.777.114 2.536-.005 3.768-.824 6.76-2.456 8.985-1.63 2.212-3.793 3.316-6.495 3.316-2.48 0-4.45-1.132-5.905-3.387-1.45-2.266-2.4-5.7-2.817-10.327l-5.588-61.533-9.58 52.2c-2.06 10.173-3.66 16.47-4.783 18.88-.716 1.5-1.657 2.573-2.83 3.185-1.13.65-2.658.983-4.578.983-2.978 0-5.25-.892-6.813-2.686s-2.75-4.835-3.558-9.12l-11.45-63.444-6.066 60.052c-.567 5.318-1.593 9.188-3.075 11.588-1.503 2.413-3.56 3.607-6.186 3.607-2.6 0-4.684-1.102-6.28-3.32-1.558-2.22-2.345-5.215-2.345-8.982 0-.892.058-1.932.166-3.106a57.77 57.77 0 0 1 .482-3.962" fill="#567eb9"/><g fill="#0b4499"><path d="M101.43 4.684c-42.836 0-79.425 21.518-94.367 51.88H43.16C55.5 41.08 76.977 30.796 101.43 30.796s45.92 10.283 58.27 25.768h36.114c-14.944-30.36-51.55-51.88-94.383-51.88h0zm-90.917 118.74c16.643 27.044 51.058 45.68 90.917 45.68s74.285-18.636 90.938-45.68h-38.386c-12.722 11.966-31.53 19.57-52.553 19.57s-39.835-7.604-52.555-19.57h-38.36zm147.954-64.806l-14.745 21.664h-21.236l-17.04 24.997h21.26l-10.94 16.058h37.34l42.702-62.72zm-63.09 0l-23.24 34.154 18.66 27.42 41.922-61.572H95.376zM53.455 120.2l-.777 1.147h1.554l-.777-1.147z"/><path d="M7.112 58.613l42.7 62.724H87.15L44.45 58.613z"/></g></svg>