<svg xmlns="http://www.w3.org/2000/svg" xmlns:xlink="http://www.w3.org/1999/xlink" width="700" height="173" xmlns:v="https://vecta.io/nano"><style><![CDATA[.B{clip-path:url(#H)}.C{clip-path:url(#S)}]]></style><defs><path id="A" d="M350.055 166.63c189.34 0 342.807-35.303 342.807-78.815S539.396 9 350.055 9 7.255 44.303 7.255 87.814s153.46 78.816 342.8 78.816"/></defs><clipPath id="B"><use xlink:href="#A"/></clipPath><g clip-path="url(#B)"><defs><path id="C" d="M6.693 9.49H693.6V166.96H6.693z"/></defs><clipPath id="D"><use xlink:href="#C"/></clipPath><clipPath id="E" clip-path="url(#D)"><use xlink:href="#G" href="#C"/></clipPath><clipPath id="F" clip-path="url(#E)"><use xlink:href="#H" href="#C"/></clipPath><clipPath id="G" clip-path="url(#F)"><use xlink:href="#I" href="#C"/></clipPath><clipPath id="H" clip-path="url(#G)"><use xlink:href="#J" href="#C"/></clipPath><g fill="#231f20"><path d="M350.055 166.63c189.34 0 342.807-35.303 342.807-78.815S539.396 9 350.055 9 7.255 44.303 7.255 87.814s153.46 78.816 342.8 78.816" class="B"/><path d="M586.167 146.68C447.17 236.744 167.3 260.553-38.764 199.798S-299.297 16.716-160.296-73.346c138.996-90.063 419.07-113.8 625.122-53.12C670.695-65.71 725.17 56.62 586.167 146.68" class="B"/></g><radialGradient id="I" cx="2.398" cy="173.144" r="1.217" gradientTransform="matrix(306.7437 90.4197 206.874 -134.0704 -36341.25 23033.125)" gradientUnits="userSpaceOnUse"><stop offset="0" stop-color="#4a659b"/><stop offset="1" stop-color="#231f20"/></radialGradient><path d="M6.693 9.49H693.6V166.96H6.693z" fill="url(#I)" class="B"/><path d="M399.646 91.756c-69.5 44.99-209.438 56.896-312.37 26.52C-15.66 87.896-42.9 26.734 26.604-18.257 96.1-63.248 236.04-75.153 338.976-44.775c102.935 30.292 130.174 91.457 60.67 136.53" fill="#4a659b" class="B"/><radialGradient id="J" cx="4.795" cy="173.281" r="1.217" gradientTransform="matrix(153.3718 45.2098 103.4369 -67.0352 -18445.75 11435.6719)" gradientUnits="userSpaceOnUse"><stop offset="0" stop-color="#fff"/><stop offset="1" stop-color="#4a659b"/></radialGradient><path d="M6.693 9.49H693.6V166.96H6.693z" fill="url(#J)" class="B"/><defs><path id="K" d="M350.055 166.63c189.34 0 342.807-35.303 342.807-78.815S539.396 9 350.055 9 7.255 44.303 7.255 87.814s153.46 78.816 342.8 78.816"/></defs><clipPath id="L"><use xlink:href="#K"/></clipPath><g clip-path="url(#L)"><defs><path id="M" d="M6.693 9.49H693.6V166.96H6.693z"/></defs><clipPath id="N"><use xlink:href="#M"/></clipPath><clipPath id="O" clip-path="url(#N)"><use xlink:href="#c" href="#M"/></clipPath><clipPath id="P" clip-path="url(#O)"><use xlink:href="#d" href="#M"/></clipPath><clipPath id="Q" clip-path="url(#P)"><use xlink:href="#e" href="#M"/></clipPath><clipPath id="R" clip-path="url(#Q)"><use xlink:href="#f" href="#M"/></clipPath><clipPath id="S" clip-path="url(#R)"><use xlink:href="#g" href="#M"/></clipPath><path d="M350.055 160.8c182.014 0 329.473-32.673 329.473-72.985S532.07 14.83 350.055 14.83 20.593 47.502 20.593 87.814 168.04 160.8 350.055 160.8" fill="#617cbe" class="C"/><g fill="#fff"><path d="M416.74 111.378l16.34-36.783c3.765-8.3.568-14.448-9.203-18.4-9.4-3.777-25.353-5.583-48.838-5.583h-28.363l8.08-18.225c.377-.658-.186-1.397-1.124-1.972s-2.443-.82-4.136-.82h-38.88c-2.63 0-4.697.82-5.26 1.9L288.068 70.5c-1.5-4.35-5.444-8.126-11.64-11.248-11.462-5.747-29.492-8.62-53.906-8.62H146.82c-2.63 0-4.697.823-5.264 1.9l-35.118 78.98c-.383.657.18 1.395 1.122 1.97s2.44.82 4.135.82h39.445c2.63 0 4.697-.82 5.26-1.886l8.45-19.13h29.3c15.396 0 28.363-.736 38.314-2.134 10.332-1.477 19.727-3.942 28.178-7.4 6.76-2.707 12.396-5.747 16.716-9.03l-6.95 15.765c-.377.655.2 1.395 1.124 1.97.943.574 2.443.82 4.133.82h39.075c2.63 0 4.697-.82 5.257-1.887l19.345-43.35h26.864c11.452 0 14.834.987 15.588 1.395s2.63 1.724.562 6.076l-15.587 34.977c-.377.655.2 1.395 1.125 1.97.943.574 2.44.82 4.135.82h39.635c2.438.002 4.698-.735 5.068-1.885zM235.668 81c-2.444 5.5-7.142 9.442-13.715 11.66-6.76 2.3-17.66 3.448-32.122 3.448h-17.463l12.58-28.4H207.5c16.526 0 23.292 1.562 25.92 2.874 3.76 1.807 4.508 5.42 2.26 10.427m348.05-21.755c-11.463-5.747-29.487-8.62-53.905-8.62h-75.702c-2.63 0-4.697.823-5.26 1.9l-34.937 78.98c-.377.657.185 1.395 1.128 1.97.933.574 2.438.82 4.13.82h39.45c2.63 0 4.7-.82 5.258-1.886l8.26-19.13h29.3c15.396 0 28.363-.736 38.313-2.134 10.332-1.477 19.727-3.942 28.18-7.4 6.943-2.8 12.77-5.9 17.093-9.357 4.32-3.366 7.5-7.225 9.203-11.248 4.696-10.097 1.123-18.06-10.52-23.9zM542.97 81c-2.444 5.5-7.142 9.442-13.715 11.66-6.76 2.3-17.66 3.448-32.122 3.448H479.67l12.584-28.4h22.538c16.53 0 23.3 1.562 25.92 2.874 3.758 1.807 4.506 5.42 2.257 10.427" class="C"/></g><g fill="#08090d"><path d="M207.5 65.4c15.03 0 24.982 1.232 29.865 3.615 5.072 2.38 6.203 6.567 3.573 12.396-2.63 6.076-7.9 10.507-15.78 13.053-7.708 2.626-19.542 3.942-35.503 3.942H165.8l14.65-33.088h27.047v.082zm-95.984 66.582h39.442l9.395-21.018h33.815c14.833 0 27.048-.655 36.813-2.053 9.576-1.395 18.406-3.693 26.106-6.896 6.573-2.628 12.022-5.582 15.968-8.783 4.135-3.202 6.95-6.733 8.64-10.6 4.135-9.36.937-16.668-9.395-21.92-10.52-5.253-27.05-7.8-49.77-7.8h-75.702l-35.312 79.062m199.096-99.998h39.072l-9.395 21.017h34.747c21.98 0 37.005 1.643 45.275 5 8.26 3.365 10.9 8.785 7.506 16.255l-16.34 36.78h-39.634l15.6-34.976c1.7-3.94 1.13-6.65-1.876-8.126s-9.58-2.134-19.537-2.134h-31.18l-20.093 45.237H275.67l34.94-79.064M514.792 65.4c15.03 0 24.98 1.232 29.864 3.615 5.074 2.38 6.203 6.567 3.573 12.396-2.63 6.076-7.9 10.507-15.776 13.053-7.7 2.626-19.544 3.942-35.506 3.942h-23.852l14.648-33.088h27.048v.082zm-95.985 66.582h39.443l9.395-21.018h33.815c14.833 0 27.047-.655 36.813-2.053 9.576-1.395 18.4-3.693 26.106-6.896 6.573-2.628 12.022-5.582 15.97-8.783 4.135-3.202 6.95-6.733 8.64-10.6 4.136-9.36.94-16.668-9.395-21.92-10.518-5.253-27.048-7.8-49.77-7.8H454.12l-35.314 79.062" class="C"/></g></g></g></svg>