<svg xmlns="http://www.w3.org/2000/svg" width="700" height="173" fill="#80b841" xmlns:v="https://vecta.io/nano"><path d="M684.127 134.197h1.892c.756 0 1.512 0 1.512-.6.38-.6.38-1.202.38-1.8s0-.602-.38-1.203c0-.6-.377-.6-.756-.6h-3.027v4.2h.38zm-1.135 7.806v-13.806h3.026c1.135 0 1.9 0 2.27.598.378 0 .757.603 1.135 1.202s.378 1.2.378 1.802c0 1.2-.378 1.8-.756 2.398-.38.603-1.136 1.203-1.892 1.203.377 0 .377.598.756.598.38.602.757 1.203 1.136 3.004l1.134 3h-1.9l-.758-2.402c-.756-1.802-1.135-3-1.512-3-.38-.602-.758-.602-1.136-.602h-.756v6.005h-1.134zm3.404-18c-1.135 0-2.27.603-3.403 1.2-1.136 1.202-1.893 2.4-2.648 4.204s-.757 3.602-.757 5.402.378 3.602.757 5.4c.756 1.802 1.513 3 2.648 4.204s2.27 1.2 3.403 1.2 2.27-.603 3.405-1.2c1.135-1.203 1.893-2.402 2.647-4.204s.758-3.602.758-5.4-.378-3.603-.758-5.402c-.755-1.804-1.513-3.002-2.647-4.204-1.135-.598-2.27-1.2-3.405-1.2zm0-2.4c1.514 0 2.65.602 4.163 1.802 1.135 1.202 2.27 3.003 3.025 4.805s1.135 4.2 1.135 6.603-.378 4.202-1.135 6.602c-.756 1.8-1.9 3.602-3.025 4.804s-2.65 1.802-4.163 1.802-2.647-.602-4.16-1.802c-1.135-1.202-2.27-3.003-3.025-4.804s-1.135-4.2-1.135-6.602.378-4.204 1.135-6.603c.756-1.802 1.9-3.603 3.025-4.805 1.513-1.2 3.026-1.802 4.16-1.802zm-506.94-50.426l-.378 8.404c-.378 2.4-1.134 4.2-1.9 5.403s-1.514 1.8-2.65 2.4-2.27 1.202-3.783 1.202-3.027.6-4.917.6l-11.35.603V54.96h16.268c1.514 0 2.65.6 3.783 1.2s1.892 1.202 2.65 2.402 1.513 3.002 1.9 4.802c.377 2.402.377 4.804.377 7.805m15.9 0c0-5.402-.378-10.205-1.135-14.408s-1.892-7.203-3.783-10.204-4.162-5.403-6.8-6.604-6.053-1.8-9.836-1.8h-32.535c-.378 0-.756 0-1.135.6s-.377 1.2-.377 1.8v103.252c0 .603 0 1.2.377 1.803s.757.6 1.135.6h12.106c.377 0 .756 0 1.134-.6s.38-1.2.38-1.803v-38.42H171.9c2.648 0 5.297 0 7.566-.6s4.54-1.2 6.43-2.4 3.784-3.002 4.918-5.402c1.892-3.002 3.026-6.604 3.783-10.806.38-5.404.758-9.607.758-15zm25.724 70.835l-1.135-10.204c0-.602 0-1.203-.378-1.203 0-.6-.378-.6-.756-.6h0-3.026c-.757 0-1.135 0-1.513-.6s-1.135-1.2-1.514-1.804c-.378-1.198-.378-2.4-.378-4.2V38.75c0-.6 0-1.8-.378-1.8-.378-.6-.756-.6-1.136-.6h-.756l-10.593 3.002c-.756 0-1.135.6-1.135 1.2-.378.6-.378 1.2-.378 2.402v84.64c0 4.205.378 7.807 1.513 10.808s2.648 5.4 4.54 7.204 4.54 2.4 7.566 2.4c1.892 0 3.405 0 4.54-.602 1.135 0 2.27-.602 3.027-1.2s1.135-.6 1.513-.6h.38l.378-.603c-.38-1.198-.38-1.8-.38-2.998h0zm31.4-10.203c-.378 0-1.135.598-1.892.598s-1.513.603-2.648.603h-6.052c-1.135 0-1.893-.603-3.027-1.2-.756-.602-1.512-1.802-2.27-3.602-.378-1.203-.757-3.603-.757-6.005s0-4.203.378-5.402.756-2.403 1.513-3.003 1.135-1.2 2.27-1.8c.757-.602 1.514-.602 2.648-.602l9.836-2.4V131.8zm13.998-1.203v-40.22l-.378-7.803c-.378-2.402-1.135-4.203-1.9-6.604-.757-1.8-1.892-3.602-3.405-4.802s-3.404-2.4-5.675-3-4.918-1.2-8.323-1.2c-2.647 0-4.917 0-7.188.6s-4.162.6-6.053 1.8c-1.9.6-3.405 1.2-4.54 1.8s-2.27 1.2-2.648 1.2-.378.6-.756.6c-.38.6-.38 1.2-.38 1.8v1.2l1.514 10.206c0 .6 0 .6.378 1.2 0 0 .378.603.757.603h.755c.757 0 1.513-.603 2.65-1.2s2.27-.6 3.783-1.202 3.027-.6 4.54-1.2 3.026-.602 4.54-.602 2.647 0 3.783.602c1.135 0 1.9.6 2.648 1.2s1.135 1.202 1.513 1.8.378 1.8.757 2.403v7.803l-16.268 2.4c-1.513.603-3.405.603-4.918 1.802-1.514.602-3.027 1.8-4.54 3.602s-2.648 3.604-3.405 6.604-1.135 6.604-1.135 11.405.378 8.406 1.135 11.407 1.892 5.4 3.405 7.203 3.026 3 4.917 4.202 3.784 1.802 6.054 1.802 4.16.598 6.43.598c2.648 0 4.918 0 7.188-.598s4.16-.602 5.675-1.802l4.16-1.8s1.892-1.203 2.65-2.402 1.135-2.402 1.513-4.204c.756-2.4.756-4.8.756-7.204zm49.937-52.227c-.756-3-1.892-5.402-3.783-6.602-1.513-1.8-3.405-3.002-6.053-3.602-2.27-.6-4.918-1.2-7.944-1.2h-4.54c-1.514 0-3.026.6-4.54.6-1.513.6-3.027.6-4.54 1.2s-2.648.6-3.783 1.2c-1.892.6-3.026 1.2-4.16 1.8s-1.893 1.8-2.65 3c-.378 1.2-.756 2.4-.756 4.202V142.6c0 .6 0 1.2.378 1.802s.757.598 1.135.598h11.35c.38 0 .758 0 1.135-.598s.38-1.203.38-1.802V83.17h.756c.378 0 1.135-.6 2.27-.6.757 0 1.9-.602 3.026-.602h3.405c1.514 0 2.647.602 3.405 1.202s1.513 1.8 1.9 3.602.757 3.602.757 6.604v50.425c0 .603 0 1.2.378 1.803s.756.6 1.135.6h11.35c.38 0 .756 0 1.135-.6s.38-1.2.38-1.803V90.376c-.38-4.803-.758-9.004-1.515-12.006zm38.21 25.2h-18.158v-6c0-1.8.378-3.6.378-5.402.378-2.4.756-4.2 1.513-5.402s1.514-2.4 2.648-3.002 2.65-1.2 4.54-1.2c1.514 0 2.65 0 3.785 1.2 1.134.602 1.9 1.8 2.646 3.002s1.136 3.602 1.513 6.003c0 1.8.38 3.002.38 4.802v6.002h.755zm14 2.403c0-6.604-.38-12.006-1.135-16.8s-1.893-9.003-3.404-12.004c-1.894-3.002-4.162-6.003-7.2-7.203-3.025-1.8-6.8-2.4-11.35-2.4s-8.323.6-10.97 2.4c-3.027 1.8-5.295 4.2-7.188 7.203s-3.027 7.204-3.783 12.607-1.135 11.404-1.135 18.608.377 13.808 1.513 18.6 2.65 9.004 4.54 12.008 4.54 5.403 7.945 6.604 7.188 2.4 11.728 1.8c2.646 0 4.918 0 7.188-.602s4.16-1.198 5.675-1.8 3.027-1.2 4.162-1.8c.377 0 .377-.6.756-1.2s.378-.602.378-1.802V139l-1.134-7.805c0-.602-.38-1.2-.757-1.8s-.378-.603-.76-.603h0c-.755.603-1.9.603-3.024 1.202s-2.65 1.2-4.16 1.2c-1.514.602-3.405.602-5.3.602-2.27 0-4.16 0-5.674-.602s-3.027-1.2-4.16-2.402c-1.513-1.2-2.27-3-3.026-4.803s-1.135-4.203-1.135-7.202h29.5c.757 0 1.513-.603 1.892-1.2s.378-1.802.378-2.4v-4.803c-.38-.598-.38-1.8-.38-2.4zm34.803 34.82l-1.135-9.605c0-.602-.378-.602-.378-1.2s-.378-.6-.757-.6h-.378c-.757 0-1.514.6-2.648.6s-2.27.6-3.784.6-2.646-.6-3.78-1.198c-.758-.603-1.514-1.804-1.893-3.002s-.378-3.003-.378-4.805v-36.62H400.4c.38 0 .758 0 1.137-.6s.378-1.2.378-1.8V71.167c0-.6 0-1.2-.378-1.8s-.757-.6-1.137-.6h-12.104v-22.8c0-.6 0-1.8-.38-1.8-.378-.6-.756-.6-1.136-.6h-.378L375.8 46.555c-.756 0-1.134.6-1.134 1.2-.378.6-.378 1.2-.378 2.4v73.237c0 6.005.756 10.206 1.9 13.8s3.026 6 5.298 7.802 5.294 2.402 9.08 2.402c1.9 0 3.78 0 5.295-.602s3.026-.6 3.784-1.198c1.135-.603 1.892-.603 2.27-1.2.378 0 .757-.603.757-1.203s.38-1.2.38-1.8v-.6h.376zm67.34 3V38.15c0-.6 0-1.2-.378-1.2-.38-.6-.38-.6-.76-.6h0l-12.484 2.4c-.377 0-.755 0-1.135.6s-.377.6-.377 1.2v40.82H425.36V38.15c0-.6 0-1.2-.378-1.2 0-.6-.378-.6-.756-.6h0l-12.486 2.4c-.38 0-.757 0-1.134.6s-.38.6-.38 1.2V143.2c0 .6 0 1.203.38 1.8.377.603.755.603 1.134.603h12.105c.38 0 .758 0 1.136-.603s.378-1.2.378-1.8V98.78h30.266v44.42c0 .6 0 1.203.377 1.8.38.603.758.603 1.135.603h12.108c.376 0 .756 0 1.135-.603 0 0 .378-.598.378-1.2m38.965-36.015c0 4.202 0 7.804-.377 10.806 0 3-.38 6.004-1.136 7.805-.377 1.802-1.513 3.602-2.647 4.802s-3.027 1.802-4.92 1.802c-2.27 0-3.782-.603-4.918-1.802s-2.27-2.402-2.647-4.802c-.38-1.8-.757-4.805-1.135-7.805 0-3.002-.38-6.604 0-10.806V96.38c0-3 .378-6.003 1.135-7.804.378-1.8 1.513-3.602 2.647-4.803s3.026-1.8 4.918-1.8c2.27 0 3.784.602 4.92 1.8s2.27 2.402 2.647 4.803c.378 1.8.757 4.803 1.136 7.804s.377 6.603.377 11.406m14.378 0c0-4.803 0-9.004-.38-12.606-.38-4.203-.756-7.806-1.892-10.805-.757-3.602-2.27-6.004-3.782-8.405-1.893-2.4-4.163-4.2-6.8-5.402s-6.432-1.8-10.214-1.8c-4.16 0-7.566.6-10.214 1.8s-4.92 3.002-6.8 5.402-3.027 5.403-3.784 8.405c-.756 3.602-1.514 7.204-1.892 10.805-.377 4.202-.377 8.402-.377 12.606s0 9.005.377 12.606c.378 4.203.757 7.806 1.892 10.806.757 3.603 2.27 6.004 3.784 8.403 1.9 2.402 4.16 4.202 6.8 5.402s6.43 1.8 10.214 1.8c4.16 0 7.565-.6 10.214-1.8s4.918-3 6.8-5.402 3.025-5.403 3.782-8.403c.757-3.604 1.513-7.205 1.892-10.806.38-4.203.38-8.404.38-12.606zm41.992 14.406c0-4.804-.378-8.405-1.136-11.406s-1.9-5.403-3.403-6.603c-1.514-1.8-3.03-3.003-4.542-3.602s-3.404-1.2-5.296-1.8c-1.134-.603-2.27-.603-3.405-1.202s-1.9-.6-3.024-1.2c-.757-.6-1.515-1.2-1.894-2.4s-.757-2.4-.757-4.202.38-3.002.757-3.602c.38-1.2 1.137-1.8 1.894-2.402s1.512-.6 2.647-1.2h6.43c1.136 0 2.27.6 3.405.6s1.892.6 2.647.6 1.137.602 1.513.602h0c.38 0 .758 0 .758-.602.38 0 .38-.6.38-1.2l1.135-9.605c0-.6 0-.6-.38-1.2 0-.6-.377-.6-.755-.6-.757-.6-1.513-.6-3.026-1.2s-3.028-1.2-5.297-1.2c-1.892-.6-4.16-.6-6.8-.6-1.514 0-3.404 0-5.298.6s-3.783 1.2-5.296 1.8c-1.892 1.202-3.404 2.4-4.92 4.202s-2.647 4.202-3.403 7.203-1.136 6.604-1.136 10.806.38 7.202 1.136 10.205 1.514 4.803 2.648 6.604 2.27 3 3.782 3.603a14.88 14.88 0 0 0 4.163 2.4c1.513.6 2.646.6 3.78 1.2s2.27.6 3.027 1.2c1.135.602 1.9.602 2.27 1.2.755.6 1.135 1.2 1.513 2.4s.38 2.4.38 4.203-.38 3.604-1.137 4.802-1.512 1.8-2.647 2.403-2.27.6-3.78.6-3.028 0-4.164-.6c-1.513 0-2.646-.603-4.16-1.2-1.134-.602-2.27-.602-3.405-1.203-.755-.6-1.513-.6-1.9-.6h-.757c-.378 0-.378 0-.757.6 0 0-.377.602-.377 1.203l-1.137 9.603v.602c0 .6 0 1.2.38 1.8.378 0 .378.603.757.603s1.134.598 2.27 1.2 2.27 1.198 3.784 1.198c1.513.602 3.404.602 4.92 1.203 1.9.598 3.78.598 5.674.598 2.647 0 5.295-.598 7.945-1.2 2.27-.602 4.54-2.402 6.43-4.203s3.405-4.2 4.163-7.802c3.028-4.205 3.406-8.408 3.406-13.2m35.167 18.602l-1.136-9.605c0-.602-.377-.602-.377-1.2s-.38-.6-.757-.6h-.38c-.756 0-1.514.6-2.65.6s-2.27.6-3.78.6-2.648-.6-3.784-1.198c-.756-.603-1.513-1.804-1.9-3.002s-.378-3.003-.378-4.805v-36.62h12.105c.378 0 .757 0 1.135-.6s.38-1.2.38-1.8V71.167c0-.6 0-1.2-.38-1.8s-.757-.6-1.135-.6h-12.105v-22.8c0-.6 0-1.8-.38-1.8-.377-.6-.757-.6-1.134-.6h-.378l-10.593 3.002c-.757 0-1.136.6-1.136 1.2-.38.6-.38 1.2-.38 2.4v73.237c0 6.005.758 10.206 1.892 13.8s3.027 6 5.297 7.802 5.297 2.402 9.08 2.402c1.893 0 3.784 0 5.297-.602s3.027-.6 3.782-1.198c1.135-.603 1.893-.603 2.27-1.2.378 0 .757-.603.757-1.203s.378-1.2.378-1.8v-.6h.38zm34.05-37.223h-18.16v-6c0-1.8.378-3.6.378-5.402.38-2.4.758-4.2 1.515-5.402s1.513-2.4 2.647-3.002 2.648-1.2 4.54-1.2c1.514 0 2.647 0 3.783 1.2 1.134.602 1.893 1.8 2.648 3.002s1.135 3.602 1.514 6.003c0 1.8.377 3.002.377 4.802v6.002h.758zm13.997 2.403c0-6.604-.378-12.006-1.136-16.8s-1.9-9.003-3.405-12.004c-1.9-3.002-4.16-6.003-7.187-7.203-3.027-1.8-6.8-2.4-11.35-2.4s-8.322.6-10.97 2.4c-3.025 1.8-5.297 4.2-7.188 7.203s-3.027 7.204-3.782 12.607-1.135 11.404-1.135 18.608.377 13.808 1.513 18.6 2.647 9.004 4.54 12.008 4.54 5.403 7.943 6.604 7.188 2.4 11.728 1.8c2.65 0 4.92 0 7.2-.602s4.16-1.198 5.674-1.8 3.025-1.2 4.16-1.8c.38 0 .38-.6.757-1.2s.38-.602.38-1.802V139l-1.136-7.805c0-.602-.377-1.2-.757-1.8s-.38-.603-.755-.603h0c-.758.603-1.894.603-3.028 1.202s-2.648 1.2-4.16 1.2c-1.514.602-3.404.602-5.295.602-2.27 0-4.162 0-5.676-.602s-3.026-1.2-4.162-2.402c-1.513-1.2-2.27-3-3.025-4.803s-1.135-4.203-1.135-7.202h29.508c.756 0 1.514-.603 1.892-1.2s.38-1.802.38-2.4v-4.803c-.38-.598-.38-1.8-.38-2.4z"/><path d="M682.234 81.372V70.566c0-.6 0-1.2-.378-1.8 0-.6-.378-.6-.378-.6-.38 0-.38-.6-.758-.6h-1.892c-1.514 0-3.025 0-4.54.6-1.513 0-3.027.6-4.16.6-1.514 0-2.648.6-4.16.6-1.513.6-2.648.6-3.783 1.2s-2.27.6-3.405 1.202-1.892 1.2-2.27 1.8c-.757.6-1.134 1.2-1.514 2.4-.378.6-.378 1.802-.378 3.603v63.63c0 .6 0 1.203.378 1.8.38.603.757.603 1.134.603h11.35c.378 0 .757 0 1.135-.603s.38-1.2.38-1.8V85.57c.378 0 1.513-.6 2.648-.6s2.647-.6 4.16-.6h4.917c.38 0 .758 0 1.136-.602.378 0 .378-.6.378-1.2v-1.2M76.932 12.337c-2.27-.6-4.918-1.202-7.566-1.202-23.077 0-42.372 26.415-46.532 61.23-.38 2.4-.757 6.003-.757 7.204 0 2.4-.378 4.803-.378 7.204 0 25.213 7.945 47.423 20.05 61.232 2.648-.602 5.674-1.802 8.323-3.004-.757-1.8-1.134-3-1.134-4.2 0-.602 0-1.8.756-3.004l.378-.598h.378c.756 0 1.9.598 3.404 2.4.757.6 1.135 1.202 1.513 2.402 1.136-.602 1.892-1.2 3.026-1.802-1.9-2.402-3.026-4.203-3.026-6.004 0-1.198.38-3 .757-5.402.38-3 1.135-4.2 1.892-4.803l4.54-1.8c1.135-.602 2.27-1.8 3.026-4.203.38-1.802 1.135-3.603 1.892-5.402.756-2.4 2.648-3.6 4.918-3.6h2.648c1.135 0 2.27-.602 4.16-1.802s3.405-1.802 4.54-1.802c2.27 0 4.162 0 5.675.602.756-.602 1.134-1.8 1.9-2.403-.756-.6-1.513-1.8-2.27-4.2-.378-1.202-1.135-3.002-1.892-6.604-.38-.6-.757-1.802-2.27-5.404-1.135-2.4-1.513-4.8-1.513-8.403a20.44 20.44 0 0 1 2.27-9.604c1.513-3.602 3.405-5.402 5.674-5.402 3.405 0 6.8 2.4 9.08 6.603 1.514 2.4 2.648 5.402 3.027 8.404 4.16-10.205 6.8-20.4 7.565-29.415v-.6c-6.053-17.4-16.268-30.616-28.374-36.02l-5.673-.598zm25.726 51.025c0-1.2 0-2.4.378-3l.38-.6h1.134c.757 0 1.136.6 1.892 1.202.757 1.2.757 1.8 1.134 2.4.38 1.8.38 3.002 0 3.602s-.377.6-.756.6c-.757.6-1.135.6-1.514.6s-2.27-.6-2.27-4.202v-.6h-.377zm-30.265 22.2c1.135-1.2 2.27-1.2 3.405-1.2 4.16 0 4.54 4.202 4.54 6.002s-.38 3.002-1.514 4.2-1.892 1.802-3.026 2.403h-.756c-3.027 0-4.162-4.203-4.162-6.005-.001-2.4.378-4.2 1.513-5.402zm-9.458 22.812c1.892 0 2.648 1.8 2.648 4.804 0 4.2-1.513 4.2-2.27 4.2s-1.514-.6-2.27-1.2c-.756-1.198-1.135-2.4-1.135-3.6 0-.6 0-1.8 1.135-3 .377-1.2 1.134-1.2 1.9-1.2zm-2.27-4.804v1.2c0 3.603-.377 6.004-1.513 7.805s-2.648 2.402-4.54 2.402-3.027-1.8-3.027-5.403c0-6.005 2.648-10.205 6.432-10.205 1.9.598 2.648 2.4 2.648 4.2zM50.45 74.768c1.134 0 2.27.6 3.027 2.4s1.134 3.603 1.134 5.403c0 1.2-.378 4.202-3.405 4.202h0c-2.27 0-3.405-2.4-3.405-6.002 0-4.804 1.892-6.004 2.65-6.004zM37.587 84.974c2.27 0 4.162 1.2 4.918 3.002s1.135 3.602 1.892 5.402c1.135 1.8 2.27 3.603 3.026 4.2l.38.6c1.136 2.403 1.892 5.402 2.27 9.006l.756 9.003 1.135 3.602c.757 1.802 1.135 3.604 1.135 6.005 0 5.403-1.892 8.403-5.296 8.403-3.027 0-6.053-3-8.702-9.603-1.135-1.202-2.27-3.004-3.026-3.604h0c-1.514-2.4-2.648-6-3.784-10.805s-1.9-8.404-1.9-12.007a20.17 20.17 0 0 1 1.891-8.402c1.136-3.603 3.028-4.803 5.297-4.803zm-7.943-15.008l1.135-1.8.378 2.4c0 1.202.378 1.8.378 3.002 0 3.6-1.135 4.202-1.9 4.202-1.135 0-2.27-1.2-2.27-3.603.377-1.2 1.134-3 2.27-4.2zm-3.027 37.82h3.027l.377 3c0 1.2 0 1.8-.377 2.402l-.38 1.198-.756-.6c-.378-.6-1.514-1.2-1.514-3.602v-2.4h-.378zm71.123 18.008c-.378 1.8-.378 2.403-.378 3 0 0 0 .603.378 1.8 0 1.203.378 1.8.378 2.403 0 3.6-1.512 7.202-4.16 9.604-1.9 1.802-4.162 3.602-6.8 4.2-.38 0-1.135.602-4.162 4.204-1.892 3-4.54 4.203-7.567 4.203-1.9 0-3.026-.602-4.16-1.204-.378 0-.378-.597-.756-.597-1.893 1.8-3.784 3-5.675 4.2-.378.602-.756 1.203-1.135 1.203h0c-1.135.598-1.892 1.198-3.027 1.8 2.65.598 5.675 1.2 8.323 1.2 26.104 0 47.3-33.616 47.668-75.04-4.54 12.007-10.97 24.012-18.538 35.418h0c.38 1.202.001 2.404-.377 3.603zm7.945-8.405l1.513-1.8v5.4c0 1.802-1.513 4.804-2.65 4.804h-.757l-.377-.6c-.38-.6-.757-1.8-.757-2.4.378-1.802 1.134-3.003 3.027-5.403zm-11.35-28.814c.756 0 3.405-3.002 3.026-7.204s-3.026-13.206-7.566-9.005c-1.514 1.202-2.27 6.003-.378 8.405s2.648 4.202 2.648 6.002 1.135 1.802 2.27 1.802z"/><path d="M82.985 116.188c-1.892-1.198-3.783-1.8-5.297-1.8-1.9 0-3.404 1.202-4.16 3.002l-2.27 5.403c-.756 2.4-1.514 4.202-2.27 4.802-1.513.604-2.648 3.604-3.026 6.604 4.918-4.2 9.457-9.004 13.997-14.408 1.137-1.2 1.894-2.4 3.028-3.602zm-38.965 6.604c1.9 1.2 4.54-3.003 3.026-7.203-1.135-4.203-4.54-8.404-4.54-13.808 0-3-2.27-8.403-4.16-6.603-1.514 1.802-2.648 6.002-1.135 12.006 1.135 6.004 4.918 14.407 6.8 15.608zM119.682 20.74c-7.566-15.607-23.456-18-41.615-9.004 2.648.6 4.918 1.2 6.8 2.4 10.972-2.4 20.05 1.2 24.97 11.405 3.783 7.805 4.54 18.6 2.648 30.016-2.27 14.407-7.945 30.014-16.268 45.023-4.16 7.203-9.08 14.407-14.376 21-12.863 15.6-26.482 25.213-38.588 28.814-1.514.603-2.65.603-4.162.603-10.214 1.8-18.537-2.403-23.077-12.006-6.43-13.8-3.783-34.818 4.918-57.03 0-2.4.378-4.802.378-7.203C6.944 104.184 1.647 134.8 10.35 153.4c6.053 12.605 17.78 16.805 31.4 13.202 4.918-1.198 9.836-3.6 15.133-6.602 9.836-6.004 20.05-15.008 29.886-27.012 12.864-15.6 23.078-34.218 29.5-52.227 3.027-7.805 4.918-15.608 6.053-23.412 3.026-14.406 1.892-27.613-2.648-36.618z"/></svg>