<svg xmlns="http://www.w3.org/2000/svg" width="700" height="173" xmlns:v="https://vecta.io/nano"><path d="M630.953 66.38c-13.753 0-12.318 9.41-12.888 19.454h22.913c.001-11.322.001-19.454-10.025-19.454zm-12.888 35.88c0 9.087 8.02 10.84 21.482 10.84 15.47 0 36.378-2.552 44.4-3.348v22.006c-6.3 1.276-25.49 4.304-44.4 4.304-34.1 0-75.63-3.03-75.63-43.53 0-35.718 32.658-44.17 67.033-44.17 35.236 0 60.73 10.046 60.73 43.85v10.047h-73.615 0zM483.7 70.685c-3.147 0-9.452 1.436-12.888 2.553v40.817c2.574.48 7.16.8 9.166.8 9.454 0 15.184-4.466 15.184-23.12-.003-18.976-2.583-21.05-11.462-21.05h0zm6.3 65.377c-6.875 0-14.036-1.115-19.19-1.755v30.457h-54.428V49.956h44.112l8.023 5.262c8.306-4.145 20.053-6.857 32.37-6.857 22.34 0 48.696 3.507 48.696 43.37.001 43.695-39.53 44.33-59.582 44.33h0zM366.23 39.592c-15.18 0-26.924-6.856-26.924-15.15S351.05 9.295 366.23 9.295c15.186 0 26.93 6.856 26.93 15.148s-11.746 15.15-26.93 15.15h0zm-27.21 94.877V49.956h54.428v84.513h-54.428zm-32.956-60.754c-8.594 0-15.183 1.914-18.05 2.87v57.883h-54.426V49.956h43.256l8.02 8.13c3.15-5.262 11.745-9.727 24.35-9.727 8.594 0 14.323.957 16.898 1.753v25.193c-5.443-.794-12.602-1.59-20.05-1.59zM202.637 113.1c3.437 0 15.47-.954 19.477-1.275v21.527c-8.304 1.115-26.64 2.7-38.67 2.7-15.47 0-44.4-.955-44.4-24.395V69.25H119V49.956h20.055l6.875-19.135 47.552-6.377v25.513h28.645l-7.16 19.295h-21.484v36.993c-.004 5.74 3.147 6.855 9.163 6.855h0zM61.968 74.354c0 3.348 4.013 4.464 13.464 6.855l5.73 1.436c13.463 3.35 32.08 8.77 32.08 24.718 0 25.512-34.1 28.7-58.438 28.7-15.755 0-32.37-2.073-43.542-3.985v-21.846C21 111.67 37.906 113.9 45.35 113.9c8.308 0 14.6-.637 14.6-4.783 0-3.19-4.01-4.623-12.89-6.854l-6.876-1.755C27.305 97.157 8.97 91.42 8.97 75.95c0-22.643 31.796-27.585 58.44-27.585 20.053 0 33.23 2.55 40.104 3.986v21.207C99.49 72.124 83.165 70.2 73.425 70.2c-6.587-.002-11.457.953-11.457 4.144h0z" fill="#359ad5"/></svg>