<svg xmlns="http://www.w3.org/2000/svg" width="700" height="173" xmlns:v="https://vecta.io/nano"><path d="M307.768 68.312c-15.744 0-32.16 6.73-32.16 6.73v-4.326c0-.948-.647-1.328-2.267-1.328h-20.096c-1.62 0-2.592.57-2.592 1.328v92.263c0 .953.648 1.52 2.27 1.52h20.417c1.294 0 2.266-.568 2.266-1.52V84.005s9.477-3.518 20.988-3.518c10.958 0 19.6 3.186 19.6 9.72v72.77c0 .952.97 1.522 2.593 1.522h20.1c1.62 0 2.268-.763 2.268-1.522V86.07c-.001-11.582-12.156-17.758-33.387-17.758h0zm156.306-46.28h-20.096c-1.623 0-2.592.568-2.592 1.33v46.544c-7.715-1.733-14.738-2.648-20.414-2.648-32.635 0-55.037 18.275-55.037 53.417 0 30.107 21.793 46.253 50.233 46.253 11.987 0 21.885-4.024 29.13-7.8l4.388 4.357c.74.753 1.346 1.01 2.834 1.01l11.557.007c1.295 0 2.27-.568 2.27-1.52V23.362c-.004-.95-.657-1.33-2.274-1.33h0zm-71.566 95.534c0-19.365 9.675-38.54 29.43-38.54 6.692 0 13.12 1.3 19.45 4.236v68.22c-4.95 1.578-11.178 3.03-17.905 3.03-21.485.001-30.977-14.924-30.977-36.947h0zm148.537-50.118c-33.465 0-49.98 25.644-49.98 53.55 0 29.21 23.556 45.582 53.843 45.582 13.313 0 26.566-3.07 35.257-5.898 1.33-.434 1.57-1.045 1.252-1.8l-2.542-6.17c-.316-.755-.966-1.13-2.572-1.13-.705 0-11.688 1.882-22.367 1.882-24.787 0-36.15-12.908-36.15-30.05v-4.165s12.317.998 19.718.998h46.76v-7.917c0-29.228-17.473-44.88-43.22-44.88h0zm-1.61 40.917c-7.402 0-20.872 1.072-20.872 1.072s.18-3.147.827-6.16c2.898-16.028 9.424-24.136 20.688-24.136 9.794 0 16.506 8.295 18.118 22.814.318 3.017.318 6.41.318 6.41h-19.08zM212.492 79.433c-7.432-8.577-20.666-12.326-35.827-12.326-9.74 0-24.94 2.182-35.09 4.856-1.986.523-3.24.983-3.24 1.898 0 .544.463 1.17.97 1.708l6.84 8.58c.705.968 1.835 1.2 2.77 1.2 1.012 0 1.835-.28 2.742-.62 9.903-3.706 17.155-5.745 22.896-5.745 7.597 0 12.755 2.952 15.937 7.39 2.964 4.137 4.1 9.853 4.1 16.457l.008 1.94c-6.24-2.288-17.05-3.548-22.448-3.548-29.033 0-44.687 16.16-44.687 33.438 0 18.62 18.3 32.274 40.287 32.274 12.247 0 23.333-4.21 30.758-9.52l4.47 6.184c.52.66 1.068.904 2.557.904l11.75.008c1.294 0 2.266-.57 2.266-1.52v-53.52c-.007-13.15-1.14-23.184-7.07-30.026h0zm-17.888 70.118c-5.757 3.258-12.65 4.963-18.855 4.963s-10.997-1.678-14.842-4.788c-4.68-3.782-6.863-9.607-6.863-16.062 0-10.208 6.434-20.683 20.068-20.683 6.75 0 14.163 1.288 20.49 4.236l.001 32.334zm495.778-80.175H672.47c-2 0-3.022.614-3.536 1.4l-11.8 18.26c-2.213 3.456-8.174 13.353-8.174 13.353l-.693-.002c-.026-.036-4.388-7.2-6.752-10.788l-13.152-20.203c-.676-1.02-1.43-2.03-3.99-2.03h-19.607c-2.156 0-3.375 1.386-2.682 2.245.7.862 31.94 42.55 31.94 42.55l-34.532 47.725c-.98 1.048.25 2.6 2.636 2.6h17.185c2.923 0 4.077-.898 4.955-2.344l11.355-18.4c3.448-5.772 8.906-15.904 8.906-15.904h.6l8.198 13.702 13.56 20.866c.792 1.23 1.902 2.08 3.91 2.08h19.486c1.93 0 2.823-1.288 1.913-2.4-2.17-2.678-20.675-29.02-33.527-46.336l34-44.18c.663-1.07.472-2.195-2.277-2.195h0z" fill="#272525"/><path d="M147.765 8.15h-22.593c-2 0-3.248.574-3.538 1.41S87.758 70.392 85.316 75.39c-1.73 3.542-7.374 16.033-8.73 19.033L64.905 75.74C62.07 70.598 34.86 26.072 34.063 24.293c-.44-.978-1.208-2.193-4.134-2.193H7.876c-2.16 0-3.375 1.387-2.68 2.246.557.687 40.393 62.77 56.487 86.488v52.146c0 .953.65 1.52 2.27 1.52h20.89c1.295 0 2.268-.568 2.268-1.52v-51.736l62.95-100.9c.648-1.07.456-2.194-2.294-2.194z" fill="red"/></svg>