<?xml version="1.0" standalone="no"?>
<!DOCTYPE svg PUBLIC "-//W3C//DTD SVG 20010904//EN"
 "http://www.w3.org/TR/2001/REC-SVG-20010904/DTD/svg10.dtd">
<svg version="1.0" xmlns="http://www.w3.org/2000/svg"
 width="471.000000pt" height="471.000000pt" viewBox="0 0 471.000000 471.000000"
 preserveAspectRatio="xMidYMid meet">
<metadata>
Created by potrace 1.14, written by Peter Selinger 2001-2017
</metadata>
<g transform="translate(0.000000,471.000000) scale(0.100000,-0.100000)"
fill="#000000" stroke="none">
<path d="M2390 3633 c-206 -34 -403 -213 -450 -407 l-13 -54 -56 -1 c-66 -1
-99 -6 -164 -27 -155 -51 -293 -193 -346 -356 l-13 -38 -352 0 -353 0 -8 -42
c-14 -85 -16 -94 -24 -123 -8 -30 -8 -30 -16 15 -5 25 -9 47 -10 50 -1 3 -5
26 -9 53 l-8 47 -109 0 c-124 0 -108 13 -133 -115 -15 -77 -17 -75 -41 38
l-16 77 -115 0 c-84 0 -114 -3 -114 -12 0 -7 29 -137 65 -288 36 -151 65 -279
65 -283 0 -4 53 -6 117 -5 l118 3 18 90 c11 50 21 97 24 105 6 17 12 -2 38
-123 l17 -78 116 3 117 3 31 135 c18 74 48 200 67 280 l35 145 1 -282 1 -283
260 0 260 0 1 33 c0 17 1 58 2 89 2 44 -2 58 -13 60 -8 2 -75 4 -147 3 -98 0
-134 3 -138 12 -5 14 5 15 162 15 53 0 83 4 85 11 2 7 4 35 3 64 -1 55 8 62
20 16 3 -16 20 -54 36 -86 25 -49 29 -69 29 -137 l0 -80 90 0 c71 0 99 -4 130
-20 67 -34 149 -50 272 -52 l118 -2 -2 -239 -3 -240 -25 -4 c-28 -4 -66 -27
-93 -55 -17 -17 -33 -18 -179 -16 l-161 3 -10 30 c-13 41 -45 74 -92 96 -121
56 -245 -26 -245 -161 0 -64 21 -104 74 -145 84 -64 223 -25 258 72 8 22 19
33 33 34 82 4 495 3 495 -1 0 -3 84 -4 187 -4 152 1 183 -1 161 -10 -40 -17
-87 -66 -104 -106 -25 -57 -4 -151 42 -191 58 -51 131 -62 199 -30 144 66 135
263 -15 327 -18 8 93 10 419 9 l443 -1 18 -34 c34 -67 95 -100 173 -95 89 5
157 80 157 174 0 164 -190 242 -302 124 -15 -16 -33 -43 -39 -61 l-11 -32
-158 0 -158 0 -32 30 c-17 16 -49 35 -71 41 l-39 12 0 237 0 236 113 2 c134 2
206 19 306 73 74 40 130 91 178 162 14 20 26 37 27 37 1 0 2 -40 1 -90 -1 -49
2 -94 5 -100 4 -7 94 -9 261 -8 l254 3 3 88 c1 48 -1 88 -5 88 -4 1 -70 2
-145 3 -124 1 -161 7 -146 21 3 3 59 7 124 8 l119 2 3 88 3 87 -126 0 c-77 0
-125 4 -125 10 0 6 55 10 144 10 l145 0 4 38 4 37 1 -42 2 -43 85 0 c61 0 85
-4 86 -12 1 -7 2 -92 4 -188 1 -96 3 -181 4 -187 1 -10 30 -13 111 -13 l110 0
0 200 0 200 85 0 c61 0 85 4 86 13 1 14 1 158 0 170 -1 4 -235 7 -521 7 l-519
0 -11 40 c-14 51 -57 130 -101 184 -96 121 -255 196 -414 197 l-71 0 -16 63
c-60 230 -301 409 -543 405 -38 -1 -81 -4 -95 -6z m80 -57 c0 -2 -54 -98 -120
-213 l-120 -208 0 -186 0 -186 -38 -6 c-73 -12 -191 -114 -192 -166 0 -9 -13
9 -28 39 -21 42 -37 59 -71 77 -42 22 -55 23 -258 23 l-213 0 -1 -142 c0 -128
-2 -139 -13 -108 -22 59 -20 195 4 272 42 136 157 259 287 308 63 24 110 31
205 34 l62 1 16 65 c48 193 184 334 370 384 53 14 110 20 110 12z m165 -20
c174 -55 296 -184 341 -361 10 -38 23 -75 30 -81 7 -6 33 -8 61 -4 192 22 393
-93 480 -275 35 -75 36 -79 36 -198 0 -102 -4 -131 -22 -179 -12 -32 -25 -60
-29 -62 -4 -2 -7 76 -6 175 l1 179 -113 0 -114 0 0 -200 c0 -188 -1 -200 -20
-210 -15 -8 -21 -6 -30 9 -5 11 -10 29 -10 40 0 20 -6 21 -105 21 l-105 0 0
-37 c0 -91 48 -171 118 -194 20 -7 41 -12 45 -11 5 1 6 -2 2 -8 -4 -6 -98 -10
-261 -10 l-254 0 4 23 c2 17 11 23 42 27 l39 5 2 58 c1 32 3 61 6 63 2 2 54
-19 115 -47 62 -27 116 -48 121 -44 6 3 9 75 8 178 -3 186 -9 211 -72 285 -29
34 -117 82 -152 82 -15 0 -23 6 -23 18 -1 9 -1 93 -1 186 l1 169 -107 186
c-59 102 -115 198 -125 214 -19 27 -19 27 1 27 11 0 54 -11 96 -24z m-30 -192
c55 -97 102 -180 103 -185 2 -5 -89 -9 -208 -9 -187 0 -211 2 -206 15 3 9 28
54 56 101 27 46 50 89 50 94 0 6 4 10 9 10 5 0 11 6 13 13 5 18 72 137 78 137
3 -1 50 -80 105 -176z m125 -678 c0 -346 -3 -445 -12 -448 -7 -2 -38 -4 -68
-4 l-55 1 -1 60 c-1 33 -2 68 -3 78 -1 16 -11 17 -93 15 l-93 -3 -1 -68 c-1
-37 -4 -71 -8 -75 -4 -3 -34 -7 -66 -8 l-60 -1 0 449 0 448 230 0 230 0 0
-444z m157 11 c42 -29 81 -91 88 -141 3 -22 5 -93 3 -158 l-3 -116 -95 44
c-52 24 -99 45 -104 47 -9 3 -11 351 -1 367 7 12 64 -10 112 -43z m-657 -140
l0 -182 -32 -14 c-18 -8 -66 -29 -106 -48 -39 -18 -73 -33 -75 -33 -1 0 -1 65
0 145 3 155 12 191 65 248 29 30 96 66 126 67 l22 0 0 -183z m1877 136 c-3
-10 -5 -2 -5 17 0 19 2 27 5 18 2 -10 2 -26 0 -35z m-3882 -4 c3 -3 7 -22 10
-40 3 -19 16 -83 28 -144 22 -103 24 -110 47 -110 24 0 26 6 55 150 l30 150
63 2 c34 2 62 1 62 -2 0 -3 12 -58 26 -123 14 -64 28 -128 30 -142 6 -30 6
-30 32 -35 25 -4 25 -6 52 145 11 63 22 124 25 135 4 18 12 21 60 22 30 0 55
-3 55 -7 0 -8 -98 -425 -106 -452 -4 -15 -17 -18 -77 -18 l-72 0 -28 133 c-16
72 -30 139 -32 147 -2 8 -4 20 -4 26 -2 20 -40 24 -50 6 -5 -10 -21 -75 -35
-147 -15 -71 -29 -138 -32 -147 -4 -15 -17 -18 -78 -18 l-73 0 -23 103 c-13
56 -25 109 -26 117 -2 8 -15 63 -29 122 -34 147 -36 139 30 137 31 -1 58 -6
60 -10z m1105 -29 l0 -37 -122 -1 c-68 0 -133 0 -145 -1 -21 -1 -23 -6 -23
-64 l0 -62 113 1 c61 0 118 -2 125 -4 6 -2 12 -17 12 -32 0 -15 -6 -30 -12
-32 -7 -3 -64 -4 -126 -3 l-113 2 3 -66 3 -66 148 -3 147 -3 0 -34 0 -35 -204
0 c-154 0 -205 3 -208 13 -3 10 -2 458 1 464 1 1 91 1 201 0 l200 -1 0 -36z
m522 29 c20 -5 46 -21 57 -36 41 -51 16 -142 -42 -157 -36 -9 -28 -45 14 -65
69 -33 82 -123 24 -180 -24 -25 -31 -26 -153 -29 l-128 -4 -56 45 c-80 66 -83
77 -81 258 0 85 2 159 2 166 1 14 305 16 363 2z m1618 -175 c0 -212 -3 -224
-76 -273 -40 -26 -57 -31 -108 -31 -112 0 -167 28 -191 95 -7 22 -11 42 -9 44
2 3 25 5 50 6 41 1 47 -2 60 -27 28 -54 109 -60 141 -12 12 20 15 56 16 197 0
94 1 175 3 178 2 3 28 6 59 7 l55 0 0 -184z m575 146 l0 -35 -135 -2 c-74 -1
-140 -2 -145 -2 -8 -1 -11 -60 -6 -116 1 -6 45 -10 114 -9 61 0 117 -4 124 -8
13 -10 9 -48 -6 -57 -5 -4 -59 -6 -120 -6 -85 1 -111 -2 -112 -12 -1 -7 -1
-29 -1 -48 0 -82 -15 -75 147 -75 l145 0 0 -35 0 -35 -206 0 -207 0 7 198 c4
108 7 215 6 238 l-1 41 198 -1 198 -1 0 -35z m585 -1 c0 -24 -5 -40 -12 -40
-7 -1 -42 -2 -78 -3 -36 -1 -70 -4 -76 -8 -7 -5 -10 -72 -10 -198 l1 -190 -57
0 -58 0 -2 198 -3 197 -85 0 c-84 0 -85 0 -87 25 -4 60 -13 57 237 57 l230 0
0 -38z m-3290 -99 c0 -6 -49 -10 -126 -10 -81 0 -123 4 -119 10 4 6 57 10 126
10 73 0 119 -4 119 -10z m640 -82 l0 -52 -21 20 c-20 20 -20 21 -2 52 10 18
19 32 21 32 1 0 2 -23 2 -52z m578 -182 c0 -61 -2 -62 -68 -61 l-45 0 -3 58
-3 57 59 0 60 0 0 -54z m-328 -31 l0 -65 38 -1 c20 -1 40 -1 43 -1 4 1 9 -10
11 -23 l5 -24 -265 -1 c-146 0 -264 2 -261 4 2 3 19 7 36 11 47 8 76 20 109
47 16 13 41 25 55 26 15 1 48 12 75 25 89 43 139 66 147 67 4 0 7 -29 7 -65z
m-720 -30 c10 -12 9 -15 -7 -15 -11 0 -20 7 -20 15 0 8 4 15 7 15 4 0 13 -7
20 -15z m1138 -62 c3 -23 3 -23 -140 -23 -147 0 -180 8 -155 36 9 9 48 12 152
11 137 -2 140 -2 143 -24z m-294 -164 c-1 -55 1 -79 9 -79 7 0 6 -4 -2 -9 -13
-8 -13 -12 0 -27 9 -11 9 -15 2 -10 -8 4 -13 1 -13 -9 0 -10 5 -13 13 -9 9 6
9 5 0 -7 -6 -8 -11 -30 -11 -49 0 -19 0 -40 -1 -47 0 -6 -20 -14 -43 -18 -82
-14 -147 -55 -163 -105 -3 -11 -15 -20 -26 -20 -18 0 -19 9 -19 234 l0 234
128 0 128 -1 -2 -78z m116 50 c0 -15 -5 -29 -12 -31 -6 -2 -13 -14 -15 -27 -2
-15 1 -20 9 -15 7 5 8 3 2 -7 -11 -19 -13 -79 -2 -85 5 -3 5 -11 0 -17 -14
-19 -12 -55 4 -68 8 -6 14 -29 14 -50 0 -33 -3 -38 -20 -36 -11 2 -23 6 -26
10 -4 4 -14 7 -23 7 -14 0 -16 17 -13 136 3 111 1 135 -10 128 -10 -6 -10 -4
1 9 7 9 11 30 9 46 -4 28 -3 29 39 28 40 0 43 -2 43 -28z m142 -145 c-3 -171
-3 -172 -27 -178 -13 -3 -30 -9 -39 -12 -13 -5 -16 1 -16 33 0 21 5 44 12 51
7 7 12 48 13 102 1 80 0 88 -14 78 -10 -8 -9 -4 3 9 17 20 17 23 2 29 -10 4
-16 18 -16 35 0 28 2 29 43 28 l42 -2 -3 -173z m288 -60 c0 -223 -1 -234 -19
-234 -12 0 -26 14 -38 36 -22 42 -89 83 -146 87 -20 2 -40 6 -43 10 -5 5 -9
273 -5 323 1 8 42 11 126 12 l125 0 0 -234z m-457 -165 c27 -11 27 -12 27
-105 0 -97 -3 -104 -45 -94 -5 1 -88 2 -183 1 l-172 -1 15 30 c8 16 15 35 15
43 0 8 8 21 17 28 11 10 14 10 9 2 -5 -9 1 -13 18 -13 14 0 27 5 27 10 8 62
42 95 118 115 46 12 96 6 154 -16z m318 -5 c32 -19 51 -45 63 -86 4 -13 16
-18 41 -18 25 0 35 -4 35 -15 0 -9 7 -29 15 -44 l14 -28 -199 0 -200 -1 0 90
c0 66 4 93 15 104 8 9 15 13 15 9 0 -3 8 -1 18 4 28 17 145 7 183 -15z m-1315
-74 c54 -21 88 -85 65 -122 -7 -11 -10 -23 -7 -26 3 -3 6 1 6 8 0 7 3 11 6 7
13 -12 -37 -75 -68 -86 -44 -16 -69 -14 -105 9 -81 49 -76 168 10 205 39 17
57 18 93 5z m2211 -10 c77 -47 77 -153 0 -200 -18 -11 -43 -20 -55 -20 -57 0
-131 61 -100 82 10 7 10 11 -4 22 -52 39 20 134 102 136 14 0 39 -9 57 -20z
m-1617 -35 c0 -22 -27 -36 -62 -33 l-33 4 38 17 c21 10 35 22 32 27 -3 6 1 7
9 4 9 -3 16 -12 16 -19z m973 -12 l32 -18 -28 -3 c-28 -3 -57 12 -57 29 0 14
18 11 53 -8z m-444 -183 c30 -16 54 -75 47 -115 -8 -40 -45 -82 -80 -91 -141
-35 -217 156 -85 215 42 19 70 17 118 -9z"/>
<path d="M2435 2962 c-41 -26 -53 -41 -63 -87 -10 -48 4 -88 43 -125 35 -33
116 -35 157 -5 51 38 67 110 35 167 -35 63 -113 86 -172 50z m127 -52 c26 -27
30 -36 25 -68 -16 -100 -149 -112 -176 -16 -26 93 81 153 151 84z"/>
<path d="M1611 2632 c-6 -2 -11 -33 -11 -73 l0 -69 83 0 c102 0 127 13 127 69
0 57 -23 72 -113 74 -42 1 -81 1 -86 -1z m147 -69 c-2 -14 -14 -18 -48 -19
-53 -2 -61 2 -53 21 3 10 20 15 55 15 42 0 49 -3 46 -17z"/>
<path d="M1600 2363 c0 -51 4 -73 13 -74 6 -1 48 -1 91 -1 64 1 83 5 98 20 29
29 32 67 5 97 -21 25 -28 27 -115 28 l-92 2 0 -72z m170 -3 c0 -17 -7 -20 -53
-20 -58 0 -68 4 -60 26 3 10 22 14 59 14 47 0 54 -2 54 -20z"/>
</g>
</svg>
